<?xml version="1.0" encoding="UTF-8" standalone="no"?>
<!-- Generator: Adobe Illustrator 14.0.0, SVG Export Plug-In . SVG Version: 6.00 Build 43363)  -->

<svg
   xmlns:dc="http://purl.org/dc/elements/1.1/"
   xmlns:cc="http://creativecommons.org/ns#"
   xmlns:rdf="http://www.w3.org/1999/02/22-rdf-syntax-ns#"
   xmlns:svg="http://www.w3.org/2000/svg"
   xmlns="http://www.w3.org/2000/svg"
   xmlns:sodipodi="http://sodipodi.sourceforge.net/DTD/sodipodi-0.dtd"
   xmlns:inkscape="http://www.inkscape.org/namespaces/inkscape"
   version="1.1"
   id="Ebene_1"
   x="0px"
   y="0px"
   width="841.89001"
   height="595.28003"
   viewBox="0 0 841.88997 595.28002"
   enable-background="new 0 0 595.28 841.89"
   xml:space="preserve"
   inkscape:version="0.48.3.1 r9886"
   sodipodi:docname="logo_enterprise.svg"><metadata
   id="metadata51"><rdf:RDF><cc:Work
       rdf:about=""><dc:format>image/svg+xml</dc:format><dc:type
         rdf:resource="http://purl.org/dc/dcmitype/StillImage" /></cc:Work></rdf:RDF></metadata><defs
   id="defs49" /><sodipodi:namedview
   pagecolor="#ffffff"
   bordercolor="#666666"
   borderopacity="1"
   objecttolerance="10"
   gridtolerance="10"
   guidetolerance="10"
   inkscape:pageopacity="0"
   inkscape:pageshadow="2"
   inkscape:window-width="1280"
   inkscape:window-height="1000"
   id="namedview47"
   showgrid="false"
   inkscape:zoom="1.324401"
   inkscape:cx="420.94501"
   inkscape:cy="297.64001"
   inkscape:window-x="0"
   inkscape:window-y="24"
   inkscape:window-maximized="1"
   inkscape:current-layer="Ebene_1" />
<path
   d="m 167.69899,290.28911 c -6.9062,6.0621 -15.27037,9.19431 -25.11344,9.19431 h -25.95753 v 21.3534 H 93.614347 v -21.3534 H 65.780284 c -9.836098,0 -18.200268,-3.13221 -25.113441,-9.19431 C 33.760647,284.21305 30.20291,276.26744 30.20291,266.63364 v -56.07971 c 0,-9.00596 3.557737,-16.74229 10.882491,-23.22993 7.324753,-6.48764 15.486621,-9.6338 24.694883,-9.6338 h 76.805266 c 9.20826,0 17.37013,3.14616 24.68791,9.6338 7.33172,6.48764 10.88946,14.22397 10.88946,23.22993 v 56.07971 c 0,9.6338 -3.55774,17.57941 -10.46393,23.65547 z m -12.55672,-79.73518 c 0,-2.9299 -1.26265,-5.44822 -3.9763,-7.75029 -2.71364,-2.30206 -5.44124,-3.34148 -8.57345,-3.34148 H 65.78726 c -3.13918,0 -5.859803,1.03244 -8.580426,3.34148 -2.720622,2.30207 -3.969318,4.82039 -3.969318,7.75029 v 56.07971 c 0,7.33173 4.185573,10.88947 12.55672,10.88947 h 27.834063 v -19.6722 h 23.013671 v 19.6722 h 25.95753 c 8.36417,0 12.55672,-3.55774 12.55672,-10.88947 v -56.07971 z"
   id="path3"
   inkscape:connector-curvature="0"
   style="fill:#41a62a" />
<path
   d="m 335.12192,290.28911 c -6.90619,6.0621 -15.49359,9.19431 -25.32969,9.19431 h -71.97791 c -9.8361,0 -18.20725,-3.13221 -25.12042,-9.19431 -6.89922,-6.07606 -10.46393,-14.02167 -10.46393,-23.65547 v -56.07971 c 0,-9.00596 3.56471,-16.74229 10.88249,-23.22993 7.33173,-6.48764 15.4936,-9.6338 24.70186,-9.6338 h 98.69582 v 21.77196 h -98.69582 c -3.14616,0 -5.8598,1.03244 -8.58043,3.34148 -2.72062,2.30904 -3.97629,4.82039 -3.97629,7.75029 v 56.07971 c 0,7.33173 4.18557,10.88947 12.56369,10.88947 h 71.97792 c 8.58042,0 12.76599,-3.55774 12.76599,-10.88947 v -5.8598 c 0,-3.13221 -1.25567,-5.65751 -3.96931,-7.73634 -2.72063,-2.30207 -5.65053,-3.34846 -8.79668,-3.34846 h -71.97792 v -21.77196 h 71.97792 c 9.42451,0 17.58638,3.14616 24.70185,9.43149 7.31778,6.48764 10.88249,14.22398 10.88249,23.43224 v 5.85981 c -0.014,9.62682 -3.35543,17.57243 -10.26163,23.64849 z"
   id="path5"
   inkscape:connector-curvature="0" />
<path
   d="M 368.81579,299.48342 V 177.6902 h 23.02065 v 121.79322 h -23.02065 z"
   id="path7"
   inkscape:connector-curvature="0" />
<path
   d="m 452.30403,199.46216 c -3.13221,0 -5.85981,1.03244 -8.57345,3.34148 -2.71365,2.30904 -3.96932,4.82039 -3.96932,7.75029 v 6.0621 c 0,7.33173 4.18557,10.88947 12.54974,10.88947 l 72.41042,0.2023 c 9.83608,0 18.20723,2.9299 24.89717,8.78971 7.12245,6.27836 10.68019,14.23792 10.68019,23.85777 v 6.27836 c 0,9.20826 -3.56472,16.95157 -10.88947,23.22993 -7.32475,6.48764 -15.48662,9.61985 -24.69486,9.61985 H 416.31507 v -21.75801 h 108.39938 c 3.13916,0 5.85978,-1.04639 8.57343,-3.1322 2.72759,-2.30207 3.97629,-4.82039 3.97629,-7.95957 v -6.27836 c 0,-7.31778 -4.18557,-10.87552 -12.5567,-10.87552 l -72.41042,-0.21625 c -9.8361,0 -18.20027,-2.92991 -25.11344,-8.99201 -6.9062,-6.07606 -10.46393,-14.02167 -10.46393,-23.65547 v -6.0621 c 0,-9.00596 3.55773,-16.74229 10.88946,-23.22993 7.32476,-6.48764 15.48663,-9.6338 24.68791,-9.6338 h 101.43038 v 21.77196 h -101.4234 z"
   id="path9"
   inkscape:connector-curvature="0" />
<g
   id="g11"
   transform="matrix(6.9759556,0,0,6.9759556,-1634.2532,-2158.3062)">
	<g
   id="g13">
		<path
   d="m 243.878,365.401 0.544,0.706 -0.501,0.391 -0.552,-0.714 c -0.349,0.178 -0.731,0.272 -1.122,0.272 -0.604,0 -1.19,-0.221 -1.624,-0.646 -0.654,-0.638 -0.773,-1.521 -0.773,-2.482 0,-0.961 0.119,-1.844 0.773,-2.481 0.434,-0.425 1.02,-0.646 1.624,-0.646 0.604,0 1.19,0.221 1.624,0.646 0.654,0.637 0.773,1.521 0.773,2.481 0,0.96 -0.12,1.836 -0.766,2.473 z m -0.535,-4.428 c -0.289,-0.297 -0.688,-0.451 -1.096,-0.451 -0.408,0 -0.807,0.153 -1.096,0.451 -0.493,0.51 -0.519,1.326 -0.519,1.955 0,0.629 0.025,1.445 0.519,1.955 0.289,0.297 0.688,0.45 1.096,0.45 0.229,0 0.451,-0.051 0.663,-0.145 l -0.714,-0.918 0.493,-0.382 0.723,0.918 c 0.425,-0.51 0.45,-1.275 0.45,-1.878 -0.001,-0.629 -0.026,-1.445 -0.519,-1.955 z"
   id="path15"
   inkscape:connector-curvature="0" />
		<path
   d="m 249.718,365.937 -0.127,-0.723 c -0.297,0.493 -0.96,0.842 -1.64,0.842 -0.604,0 -1.19,-0.196 -1.624,-0.621 -0.612,-0.595 -0.782,-1.428 -0.782,-2.507 0,-0.96 0.127,-1.844 0.782,-2.481 0.434,-0.425 1.02,-0.646 1.624,-0.646 0.68,0 1.309,0.238 1.725,0.68 0.289,0.306 0.493,0.688 0.519,1.173 h -0.791 c -0.025,-0.28 -0.119,-0.476 -0.272,-0.663 -0.272,-0.323 -0.688,-0.476 -1.181,-0.476 -0.408,0 -0.808,0.162 -1.097,0.459 -0.493,0.51 -0.527,1.326 -0.527,1.955 0,0.604 0.042,1.47 0.544,1.98 0.289,0.297 0.671,0.434 1.08,0.434 0.425,0 0.824,-0.145 1.096,-0.417 0.399,-0.391 0.519,-0.978 0.519,-1.53 h -1.615 v -0.706 h 2.294 v 3.247 h -0.527 z"
   id="path17"
   inkscape:connector-curvature="0" />
		<path
   d="m 251.724,365.937 v -6.026 h 0.773 v 6.026 h -0.773 z"
   id="path19"
   inkscape:connector-curvature="0" />
		<path
   d="m 257.809,365.443 c -0.417,0.408 -1.062,0.604 -1.708,0.604 -0.731,0 -1.317,-0.204 -1.726,-0.578 -0.382,-0.357 -0.646,-0.875 -0.646,-1.445 h 0.791 c 0,0.357 0.179,0.714 0.425,0.952 0.272,0.264 0.731,0.374 1.156,0.374 0.459,0 0.85,-0.093 1.122,-0.349 0.187,-0.17 0.306,-0.382 0.306,-0.705 0,-0.468 -0.297,-0.858 -1.011,-0.969 -0.332,-0.051 -0.629,-0.093 -0.952,-0.145 -0.901,-0.136 -1.606,-0.637 -1.606,-1.598 0,-0.451 0.204,-0.884 0.527,-1.19 0.417,-0.391 0.952,-0.595 1.581,-0.595 0.586,0 1.165,0.195 1.564,0.578 0.365,0.349 0.561,0.782 0.578,1.292 h -0.79 c -0.017,-0.297 -0.127,-0.561 -0.298,-0.756 -0.229,-0.264 -0.595,-0.417 -1.062,-0.417 -0.434,0 -0.808,0.119 -1.071,0.417 -0.153,0.178 -0.246,0.382 -0.246,0.654 0,0.544 0.45,0.791 0.901,0.85 0.34,0.042 0.671,0.102 1.003,0.153 1.003,0.145 1.674,0.756 1.674,1.708 -0.002,0.503 -0.215,0.877 -0.512,1.165 z"
   id="path21"
   inkscape:connector-curvature="0" />
		<path
   d="m 261.55,365.937 v -6.026 h 4.028 v 0.697 h -3.272 v 1.836 h 2.873 v 0.714 h -2.873 v 2.083 h 3.272 v 0.697 h -4.028 z"
   id="path23"
   inkscape:connector-curvature="0" />
		<path
   d="m 269.556,365.937 v -2.728 c 0,-0.646 -0.263,-1.029 -0.943,-1.029 -0.417,0 -0.748,0.272 -0.935,0.663 -0.145,0.314 -0.153,0.765 -0.153,1.097 v 1.997 h -0.722 v -4.301 h 0.629 l 0.06,0.646 c 0.221,-0.493 0.816,-0.756 1.3,-0.756 0.978,0 1.487,0.586 1.487,1.581 v 2.83 h -0.723 z"
   id="path25"
   inkscape:connector-curvature="0" />
		<path
   d="m 273.144,365.996 c -0.926,0 -1.181,-0.586 -1.181,-1.165 v -2.575 h -0.833 v -0.621 h 0.833 v -1.096 l 0.722,-0.17 v 1.266 h 1.275 v 0.621 h -1.275 v 2.49 c 0,0.417 0.179,0.586 0.578,0.586 0.306,0 0.739,-0.076 0.739,-0.076 v 0.62 c -0.195,0.052 -0.459,0.12 -0.858,0.12 z"
   id="path27"
   inkscape:connector-curvature="0" />
		<path
   d="m 278.422,364.024 h -3.042 c 0,0.391 0.153,0.816 0.417,1.079 0.195,0.196 0.459,0.306 0.79,0.306 0.34,0 0.621,-0.094 0.799,-0.281 0.119,-0.119 0.195,-0.238 0.255,-0.467 h 0.705 c -0.059,0.425 -0.314,0.824 -0.663,1.062 -0.306,0.204 -0.688,0.323 -1.097,0.323 -0.603,0 -1.096,-0.255 -1.428,-0.646 -0.357,-0.417 -0.535,-0.986 -0.535,-1.598 0,-0.519 0.093,-0.978 0.331,-1.377 0.306,-0.519 0.875,-0.901 1.624,-0.901 0.552,0 0.995,0.212 1.309,0.553 0.348,0.382 0.552,0.935 0.544,1.513 l -0.009,0.434 z m -0.994,-1.496 c -0.179,-0.238 -0.468,-0.391 -0.85,-0.391 -0.782,0 -1.165,0.638 -1.181,1.267 h 2.294 c 0,-0.323 -0.093,-0.646 -0.263,-0.876 z"
   id="path29"
   inkscape:connector-curvature="0" />
		<path
   d="m 281.567,362.308 c -0.34,0 -0.621,0.153 -0.816,0.34 -0.349,0.332 -0.391,0.926 -0.391,1.377 v 1.912 h -0.714 v -4.301 h 0.637 l 0.06,0.757 c 0.221,-0.527 0.739,-0.782 1.283,-0.782 0.111,0 0.229,0.009 0.34,0.025 v 0.706 c -0.127,-0.026 -0.271,-0.034 -0.399,-0.034 z"
   id="path31"
   inkscape:connector-curvature="0" />
		<path
   d="m 286.063,365.622 c -0.281,0.264 -0.68,0.434 -1.182,0.434 -0.467,0 -1.02,-0.221 -1.25,-0.612 v 2.337 h -0.722 v -6.136 h 0.637 l 0.051,0.561 c 0.246,-0.434 0.799,-0.671 1.283,-0.671 0.527,0 0.935,0.178 1.215,0.467 0.408,0.417 0.621,1.071 0.621,1.785 0.002,0.739 -0.219,1.419 -0.653,1.835 z m -1.3,-3.476 c -0.314,0 -0.527,0.127 -0.697,0.28 -0.357,0.314 -0.476,0.833 -0.476,1.369 0,0.535 0.119,1.054 0.476,1.368 0.17,0.153 0.382,0.28 0.697,0.28 0.96,0 1.215,-0.858 1.215,-1.648 0,-0.791 -0.255,-1.649 -1.215,-1.649 z"
   id="path33"
   inkscape:connector-curvature="0" />
		<path
   d="m 289.888,362.308 c -0.34,0 -0.621,0.153 -0.816,0.34 -0.349,0.332 -0.391,0.926 -0.391,1.377 v 1.912 h -0.714 v -4.301 h 0.637 l 0.06,0.757 c 0.221,-0.527 0.739,-0.782 1.283,-0.782 0.111,0 0.229,0.009 0.34,0.025 v 0.706 c -0.127,-0.026 -0.271,-0.034 -0.399,-0.034 z"
   id="path35"
   inkscape:connector-curvature="0" />
		<path
   d="m 291.18,360.65 v -0.85 h 0.842 v 0.85 h -0.842 z m 0.051,5.287 v -4.301 h 0.739 v 4.301 h -0.739 z"
   id="path37"
   inkscape:connector-curvature="0" />
		<path
   d="m 296.398,365.562 c -0.332,0.34 -0.841,0.484 -1.402,0.484 -0.536,0 -1.028,-0.127 -1.394,-0.484 -0.263,-0.255 -0.417,-0.621 -0.417,-0.986 h 0.723 c 0.008,0.297 0.145,0.519 0.349,0.671 0.195,0.145 0.501,0.195 0.773,0.195 0.298,0 0.57,-0.051 0.791,-0.238 0.119,-0.093 0.212,-0.272 0.212,-0.467 0,-0.323 -0.229,-0.553 -0.671,-0.612 -0.187,-0.025 -0.671,-0.085 -0.969,-0.127 -0.646,-0.102 -1.054,-0.501 -1.054,-1.156 0,-0.332 0.161,-0.646 0.357,-0.841 0.28,-0.289 0.731,-0.476 1.266,-0.476 0.569,0 1.08,0.179 1.369,0.544 0.187,0.229 0.306,0.476 0.306,0.825 h -0.722 c -0.009,-0.221 -0.119,-0.425 -0.247,-0.536 -0.179,-0.162 -0.417,-0.229 -0.706,-0.229 -0.17,0 -0.297,0 -0.501,0.085 -0.272,0.11 -0.433,0.34 -0.433,0.578 0,0.357 0.221,0.51 0.578,0.561 0.238,0.034 0.578,0.068 1.037,0.145 0.612,0.102 1.096,0.544 1.096,1.19 -10e-4,0.373 -0.136,0.662 -0.341,0.874 z"
   id="path39"
   inkscape:connector-curvature="0" />
		<path
   d="m 301.439,364.024 h -3.043 c 0,0.391 0.153,0.816 0.417,1.079 0.195,0.196 0.458,0.306 0.791,0.306 0.34,0 0.62,-0.094 0.799,-0.281 0.119,-0.119 0.195,-0.238 0.255,-0.467 h 0.705 c -0.06,0.425 -0.314,0.824 -0.663,1.062 -0.306,0.204 -0.688,0.323 -1.096,0.323 -0.604,0 -1.097,-0.255 -1.428,-0.646 -0.357,-0.417 -0.535,-0.986 -0.535,-1.598 0,-0.519 0.093,-0.978 0.331,-1.377 0.306,-0.519 0.875,-0.901 1.624,-0.901 0.552,0 0.994,0.212 1.31,0.553 0.348,0.382 0.552,0.935 0.543,1.513 l -0.01,0.434 z m -0.994,-1.496 c -0.18,-0.238 -0.469,-0.391 -0.851,-0.391 -0.782,0 -1.165,0.638 -1.182,1.267 h 2.295 c 0.001,-0.323 -0.092,-0.646 -0.262,-0.876 z"
   id="path41"
   inkscape:connector-curvature="0" />
	</g>
</g>
<g
   id="g43"
   transform="matrix(6.9759556,0,0,6.9759556,-1634.2532,-2158.3062)">
	<path
   d="m 347.232,338.348 h -12.589 c -2.266,0 -4.195,1.847 -4.195,4.197 v 2.098 c 0,2.267 1.93,4.196 4.195,4.196 h 12.589 c 2.351,0 4.197,1.847 4.197,4.197 v 2.098 c 0,2.266 -1.847,4.196 -4.197,4.196 h -12.589 c -2.266,0 -4.195,-1.931 -4.195,-4.196 v -1.931 c 0,-2.518 -1.848,-4.364 -4.197,-4.364 h -2.099 c -2.266,0 -4.196,-1.93 -4.196,-4.196 v -2.098 c 0,-2.351 1.931,-4.197 4.196,-4.197 h 2.099 c 2.35,0 4.197,-1.931 4.197,-4.195 v -2.099 c 0,-2.351 1.93,-4.196 4.195,-4.196 h 12.589 c 2.351,0 4.197,1.846 4.197,4.196 v 2.099 c 0.001,2.264 -1.846,4.195 -4.197,4.195 z"
   id="path45"
   inkscape:connector-curvature="0"
   style="fill:#41a62a" />
</g>
</svg>