<?xml version="1.0" encoding="UTF-8" standalone="no"?>
<!-- Created with Inkscape (http://www.inkscape.org/) -->

<svg
   xmlns:dc="http://purl.org/dc/elements/1.1/"
   xmlns:cc="http://creativecommons.org/ns#"
   xmlns:rdf="http://www.w3.org/1999/02/22-rdf-syntax-ns#"
   xmlns:svg="http://www.w3.org/2000/svg"
   xmlns="http://www.w3.org/2000/svg"
   xmlns:sodipodi="http://sodipodi.sourceforge.net/DTD/sodipodi-0.dtd"
   xmlns:inkscape="http://www.inkscape.org/namespaces/inkscape"
   version="1.1"
   width="346.54407"
   height="170.47725"
   id="svg2"
   inkscape:version="0.91 r13725"
   sodipodi:docname="inhaltsverzeichnis-gebaeudeplan.svg">
  <sodipodi:namedview
     pagecolor="#ffffff"
     bordercolor="#666666"
     borderopacity="1"
     objecttolerance="10"
     gridtolerance="10"
     guidetolerance="10"
     inkscape:pageopacity="0"
     inkscape:pageshadow="2"
     inkscape:window-width="640"
     inkscape:window-height="480"
     id="namedview13"
     showgrid="false"
     inkscape:zoom="2.8139912"
     inkscape:cx="60.348584"
     inkscape:cy="111.07678"
     inkscape:current-layer="svg2"
     fit-margin-top="0"
     fit-margin-left="0"
     fit-margin-right="0"
     fit-margin-bottom="0" />
  <metadata
     id="metadata8">
    <rdf:RDF>
      <cc:Work
         rdf:about="">
        <dc:format>image/svg+xml</dc:format>
        <dc:type
           rdf:resource="http://purl.org/dc/dcmitype/StillImage" />
        <dc:title></dc:title>
      </cc:Work>
    </rdf:RDF>
  </metadata>
  <defs
     id="defs6" />
  <path
     inkscape:connector-curvature="0"
     id="path14"
     style="fill:none;stroke:#d3d2d2;stroke-width:0.59605002;stroke-linecap:round;stroke-linejoin:round;stroke-miterlimit:22.92560005;stroke-dasharray:none;stroke-opacity:1"
     d="m 188.45185,107.29244 1.76882,-1.44121" />
  <path
     inkscape:connector-curvature="0"
     id="path16"
     style="fill:none;stroke:#d3d2d2;stroke-width:0.59605002;stroke-linecap:round;stroke-linejoin:round;stroke-miterlimit:22.92560005;stroke-dasharray:none;stroke-opacity:1"
     d="m 189.86489,108.90398 1.86302,-1.53332" />
  <path
     inkscape:connector-curvature="0"
     id="path18"
     style="fill:none;stroke:#d3d2d2;stroke-width:0.59605002;stroke-linecap:round;stroke-linejoin:round;stroke-miterlimit:22.92560005;stroke-dasharray:none;stroke-opacity:1"
     d="m 191.08111,110.09455 2.05395,-1.50136" />
  <path
     inkscape:connector-curvature="0"
     id="path20"
     style="fill:none;stroke:#d3d2d2;stroke-width:0.59605002;stroke-linecap:round;stroke-linejoin:round;stroke-miterlimit:22.92560005;stroke-dasharray:none;stroke-opacity:1"
     d="m 192.36083,111.34441 2.14984,-1.53331" />
  <path
     inkscape:connector-curvature="0"
     id="path22"
     style="fill:none;stroke:#d3d2d2;stroke-width:0.59605002;stroke-linecap:round;stroke-linejoin:round;stroke-miterlimit:22.92560005;stroke-dasharray:none;stroke-opacity:1"
     d="m 193.74443,112.6376 2.05396,-1.50136" />
  <path
     inkscape:connector-curvature="0"
     id="path24"
     style="fill:none;stroke:#d3d2d2;stroke-width:0.59605002;stroke-linecap:round;stroke-linejoin:round;stroke-miterlimit:22.92560005;stroke-dasharray:none;stroke-opacity:1"
     d="m 195.11332,113.92489 1.95848,-1.46939" />
  <g
     transform="matrix(0.03520859,0,0,-0.04890081,-0.36461057,190.63523)"
     id="g26">
    <path
       inkscape:connector-curvature="0"
       id="path28"
       style="fill:none;stroke:#d3d2d2;stroke-width:12.18900013;stroke-linecap:round;stroke-linejoin:round;stroke-miterlimit:22.92560005;stroke-dasharray:none;stroke-opacity:1"
       d="m 5162.32,1819.25 132.3,0.73 660.53,-459.46 -303.65,-38.87 -103.68,-186.13" />
  </g>
  <path
     inkscape:connector-curvature="0"
     id="path30"
     style="fill:none;stroke:#d3d2d2;stroke-width:0.4544307;stroke-linecap:butt;stroke-linejoin:miter;stroke-miterlimit:22.92560005;stroke-dasharray:none;stroke-opacity:1"
     d="m 196.58145,134.20326 -1.74612,1.23136 -0.41255,-2.09685" />
  <g
     transform="matrix(0.03520859,0,0,-0.04890081,-0.36461057,190.63523)"
     id="g32">
    <path
       inkscape:connector-curvature="0"
       id="path34"
       style="fill:none;stroke:#d3d2d2;stroke-width:12.18900013;stroke-linecap:round;stroke-linejoin:round;stroke-miterlimit:22.92560005;stroke-dasharray:none;stroke-opacity:1"
       d="m 5200.1,1781.61 42.58,1.39 551.35,-394.35 -341.24,-35.6 -171.62,-52.16" />
  </g>
  <path
     inkscape:connector-curvature="0"
     id="path36"
     style="fill:none;stroke:#d3d2d2;stroke-width:0.571612;stroke-linecap:butt;stroke-linejoin:miter;stroke-miterlimit:22.92560005;stroke-dasharray:none;stroke-opacity:1"
     d="m 187.81598,127.66291 -2.6465,-0.47017 1.50892,-2.22512" />
  <path
     inkscape:connector-curvature="0"
     id="path38"
     style="fill:none;stroke:#d3d2d2;stroke-width:0.59605002;stroke-linecap:round;stroke-linejoin:round;stroke-miterlimit:22.92560005;stroke-dasharray:none;stroke-opacity:1"
     d="m 198.86502,117.41123 1.92694,-1.46939" />
  <path
     inkscape:connector-curvature="0"
     id="path40"
     style="fill:none;stroke:#d3d2d2;stroke-width:0.59605002;stroke-linecap:round;stroke-linejoin:round;stroke-miterlimit:22.92560005;stroke-dasharray:none;stroke-opacity:1"
     d="m 196.35561,115.04018 1.99045,-1.50135" />
  <path
     inkscape:connector-curvature="0"
     id="path42"
     style="fill:none;stroke:#d3d2d2;stroke-width:0.59605002;stroke-linecap:round;stroke-linejoin:round;stroke-miterlimit:22.92560005;stroke-dasharray:none;stroke-opacity:1"
     d="m 197.60968,116.17524 1.79995,-1.40589" />
  <path
     inkscape:connector-curvature="0"
     id="path44"
     style="fill:none;stroke:#d3d2d2;stroke-width:0.59605002;stroke-linecap:round;stroke-linejoin:round;stroke-miterlimit:22.92560005;stroke-dasharray:none;stroke-opacity:1"
     d="m 200.23474,118.66656 1.83106,-1.40589" />
  <path
     inkscape:connector-curvature="0"
     id="path46"
     style="fill:none;stroke:#d3d2d2;stroke-width:0.59605002;stroke-linecap:round;stroke-linejoin:round;stroke-miterlimit:22.92560005;stroke-dasharray:none;stroke-opacity:1"
     d="m 140.48087,107.03759 -1.76883,-1.44122" />
  <path
     inkscape:connector-curvature="0"
     id="path48"
     style="fill:none;stroke:#d3d2d2;stroke-width:0.59605002;stroke-linecap:round;stroke-linejoin:round;stroke-miterlimit:22.92560005;stroke-dasharray:none;stroke-opacity:1"
     d="m 139.06783,108.64913 -1.86303,-1.53332" />
  <path
     inkscape:connector-curvature="0"
     id="path50"
     style="fill:none;stroke:#d3d2d2;stroke-width:0.59605002;stroke-linecap:round;stroke-linejoin:round;stroke-miterlimit:22.92560005;stroke-dasharray:none;stroke-opacity:1"
     d="m 137.8516,109.8397 -2.05437,-1.50178" />
  <path
     inkscape:connector-curvature="0"
     id="path52"
     style="fill:none;stroke:#d3d2d2;stroke-width:0.59605002;stroke-linecap:round;stroke-linejoin:round;stroke-miterlimit:22.92560005;stroke-dasharray:none;stroke-opacity:1"
     d="m 136.57146,111.08956 -2.14942,-1.53373" />
  <path
     inkscape:connector-curvature="0"
     id="path54"
     style="fill:none;stroke:#d3d2d2;stroke-width:0.59605002;stroke-linecap:round;stroke-linejoin:round;stroke-miterlimit:22.92560005;stroke-dasharray:none;stroke-opacity:1"
     d="m 135.18828,112.38275 -2.05437,-1.50136" />
  <path
     inkscape:connector-curvature="0"
     id="path56"
     style="fill:none;stroke:#d3d2d2;stroke-width:0.59605002;stroke-linecap:round;stroke-linejoin:round;stroke-miterlimit:22.92560005;stroke-dasharray:none;stroke-opacity:1"
     d="m 133.8194,113.67004 -1.95849,-1.46939" />
  <g
     transform="matrix(0.03520859,0,0,-0.04890081,-0.36461057,190.63523)"
     id="g58">
    <path
       inkscape:connector-curvature="0"
       id="path60"
       style="fill:none;stroke:#d3d2d2;stroke-width:12.18900013;stroke-linecap:round;stroke-linejoin:round;stroke-miterlimit:22.92560005;stroke-dasharray:none;stroke-opacity:1"
       d="m 4200.79,1824.46 -132.3,0.73 -660.53,-459.46 303.65,-38.87 103.68,-186.13" />
  </g>
  <path
     inkscape:connector-curvature="0"
     id="path62"
     style="fill:none;stroke:#d3d2d2;stroke-width:0.4544307;stroke-linecap:butt;stroke-linejoin:miter;stroke-miterlimit:22.92560005;stroke-dasharray:none;stroke-opacity:1"
     d="m 134.50867,133.08292 -0.41129,2.09727 -1.74695,-1.23136" />
  <g
     transform="matrix(0.03520859,0,0,-0.04890081,-0.36461057,190.63523)"
     id="g64">
    <path
       inkscape:connector-curvature="0"
       id="path66"
       style="fill:none;stroke:#d3d2d2;stroke-width:12.18900013;stroke-linecap:round;stroke-linejoin:round;stroke-miterlimit:22.92560005;stroke-dasharray:none;stroke-opacity:1"
       d="m 4163.01,1786.82 -42.59,1.4 -551.34,-394.36 341.23,-35.6 171.63,-52.16" />
  </g>
  <path
     inkscape:connector-curvature="0"
     id="path68"
     style="fill:none;stroke:#d3d2d2;stroke-width:0.571612;stroke-linecap:butt;stroke-linejoin:miter;stroke-miterlimit:22.92560005;stroke-dasharray:none;stroke-opacity:1"
     d="m 142.25389,124.71361 1.50935,2.22427 -2.64693,0.47102" />
  <path
     inkscape:connector-curvature="0"
     id="path70"
     style="fill:none;stroke:#d3d2d2;stroke-width:0.59605002;stroke-linecap:round;stroke-linejoin:round;stroke-miterlimit:22.92560005;stroke-dasharray:none;stroke-opacity:1"
     d="m 130.06728,117.15638 -1.92695,-1.4694" />
  <path
     inkscape:connector-curvature="0"
     id="path72"
     style="fill:none;stroke:#d3d2d2;stroke-width:0.59605002;stroke-linecap:round;stroke-linejoin:round;stroke-miterlimit:22.92560005;stroke-dasharray:none;stroke-opacity:1"
     d="m 132.5771,114.78533 -1.99045,-1.50135" />
  <path
     inkscape:connector-curvature="0"
     id="path74"
     style="fill:none;stroke:#d3d2d2;stroke-width:0.59605002;stroke-linecap:round;stroke-linejoin:round;stroke-miterlimit:22.92560005;stroke-dasharray:none;stroke-opacity:1"
     d="m 131.32261,115.91997 -1.79952,-1.40589" />
  <path
     inkscape:connector-curvature="0"
     id="path76"
     style="fill:none;stroke:#d3d2d2;stroke-width:0.59605002;stroke-linecap:round;stroke-linejoin:round;stroke-miterlimit:22.92560005;stroke-dasharray:none;stroke-opacity:1"
     d="m 128.69797,118.41171 -1.83106,-1.40589" />
  <path
     inkscape:connector-curvature="0"
     id="path78"
     style="fill:#91dbe1;fill-opacity:1;fill-rule:evenodd;stroke:none"
     d="m 136.49955,60.590251 62.61191,-0.0198 -15.73057,-11.50576 -32.44228,0 -14.43906,11.52552" />
  <path
     inkscape:connector-curvature="0"
     id="path80"
     style="fill:none;stroke:#72aab0;stroke-width:0.29802501;stroke-linecap:butt;stroke-linejoin:miter;stroke-miterlimit:22.92560005;stroke-dasharray:none;stroke-opacity:1"
     d="m 136.49955,60.590251 62.61191,-0.0198 -15.73057,-11.50576 -32.44228,0 -14.43906,11.52552 z" />
  <path
     inkscape:connector-curvature="0"
     id="path82"
     style="fill:#91dbe1;fill-opacity:1;fill-rule:evenodd;stroke:none"
     d="m 125.21164,91.540851 82.23633,-0.0244 -20.66107,-14.38524 -42.61027,-4.2e-4 -18.96499,14.41006" />
  <path
     inkscape:connector-curvature="0"
     id="path84"
     style="fill:none;stroke:#72aab0;stroke-width:0.29802501;stroke-linecap:butt;stroke-linejoin:miter;stroke-miterlimit:22.92560005;stroke-dasharray:none;stroke-opacity:1"
     d="m 125.21164,91.540851 82.23633,-0.0244 -20.66107,-14.38524 -42.61027,-4.2e-4 -18.96499,14.41006 z" />
  <path
     inkscape:connector-curvature="0"
     id="path86"
     style="fill:#91dbe1;fill-opacity:1;fill-rule:evenodd;stroke:none"
     d="m 204.85361,84.355801 28.43488,-0.17537 -16.36307,-6.81413 -22.06317,-0.2927 9.99136,7.2822" />
  <path
     inkscape:connector-curvature="0"
     id="path88"
     style="fill:none;stroke:#72aab0;stroke-width:0.29802501;stroke-linecap:butt;stroke-linejoin:miter;stroke-miterlimit:22.92560005;stroke-dasharray:none;stroke-opacity:1"
     d="m 204.85361,84.355801 28.43488,-0.17537 -16.36307,-6.81413 -22.06317,-0.2927 9.99136,7.2822 z" />
  <path
     inkscape:connector-curvature="0"
     id="path90"
     style="fill:#91dbe1;fill-opacity:1;fill-rule:evenodd;stroke:none"
     d="m 131.93955,117.86542 65.73826,0.34611 -16.636,-16.78698 -33.12062,-0.15098 -15.98164,16.59185" />
  <path
     inkscape:connector-curvature="0"
     id="path92"
     style="fill:none;stroke:#72aab0;stroke-width:0.29802501;stroke-linecap:butt;stroke-linejoin:miter;stroke-miterlimit:22.92560005;stroke-dasharray:none;stroke-opacity:1"
     d="m 131.93955,117.86542 65.73826,0.34611 -16.636,-16.78698 -33.12062,-0.15098 -15.98164,16.59185 z" />
  <path
     inkscape:connector-curvature="0"
     id="path94"
     style="fill:#91dbe1;fill-opacity:1;fill-rule:evenodd;stroke:none"
     d="m 106.39635,84.733031 19.04196,0.43274 12.07307,-8.24273 -17.35472,-0.39573 -13.76031,8.20572" />
  <path
     inkscape:connector-curvature="0"
     id="path96"
     style="fill:none;stroke:#72aab0;stroke-width:0.29802501;stroke-linecap:butt;stroke-linejoin:miter;stroke-miterlimit:22.92560005;stroke-dasharray:none;stroke-opacity:1"
     d="m 106.39635,84.733031 19.04196,0.43274 12.07307,-8.24273 -17.35472,-0.39573 -13.76031,8.20572 z" />
  <path
     inkscape:connector-curvature="0"
     id="path98"
     style="fill:#91dbe1;fill-opacity:1;fill-rule:evenodd;stroke:none"
     d="m 277.29708,96.125651 26.84983,0.31962 -18.29674,-8.60146 -24.48174,-0.18882 15.92865,8.47066" />
  <path
     inkscape:connector-curvature="0"
     id="path100"
     style="fill:none;stroke:#72aab0;stroke-width:0.29802501;stroke-linecap:butt;stroke-linejoin:miter;stroke-miterlimit:22.92560005;stroke-dasharray:none;stroke-opacity:1"
     d="m 277.29708,96.125651 26.84983,0.31962 -18.29674,-8.60146 -24.48174,-0.18882 15.92865,8.47066 z" />
  <path
     inkscape:connector-curvature="0"
     id="path102"
     style="fill:#91dbe1;fill-opacity:1;fill-rule:evenodd;stroke:none"
     d="m 296.79911,108.19662 29.94381,0.0559 -18.63613,-9.393339 -27.04708,-0.0383 15.7394,9.375679" />
  <path
     inkscape:connector-curvature="0"
     id="path104"
     style="fill:none;stroke:#72aab0;stroke-width:0.29802501;stroke-linecap:butt;stroke-linejoin:miter;stroke-miterlimit:22.92560005;stroke-dasharray:none;stroke-opacity:1"
     d="m 296.79911,108.19662 29.94381,0.0559 -18.63613,-9.393339 -27.04708,-0.0383 15.7394,9.375679 z" />
  <path
     inkscape:connector-curvature="0"
     id="path106"
     style="fill:#91dbe1;fill-opacity:1;fill-rule:evenodd;stroke:none"
     d="M 8.1674094,105.55726 48.107663,105.83945 67.986926,94.710511 30.604109,94.484681 8.1674094,105.55726" />
  <path
     inkscape:connector-curvature="0"
     id="path108"
     style="fill:none;stroke:#72aab0;stroke-width:0.29802501;stroke-linecap:butt;stroke-linejoin:miter;stroke-miterlimit:22.92560005;stroke-dasharray:none;stroke-opacity:1"
     d="M 8.1674094,105.55726 48.107663,105.83945 67.986926,94.710511 30.604109,94.484681 8.1674094,105.55726 Z" />
  <path
     inkscape:connector-curvature="0"
     id="path110"
     style="fill:#91dbe1;fill-opacity:1;fill-rule:evenodd;stroke:none"
     d="m 3.9397744,139.40669 41.8267016,0.20649 19.65301,-15.12709 -37.383197,-0.22625 -24.0965146,15.14685" />
  <path
     inkscape:connector-curvature="0"
     id="path112"
     style="fill:none;stroke:#72aab0;stroke-width:0.29802501;stroke-linecap:butt;stroke-linejoin:miter;stroke-miterlimit:22.92560005;stroke-dasharray:none;stroke-opacity:1"
     d="m 3.9397744,139.40669 41.8267016,0.20649 19.65301,-15.12709 -37.383197,-0.22625 -24.0965146,15.14685 z" />
  <path
     inkscape:connector-curvature="0"
     id="path114"
     style="fill:#91dbe1;fill-opacity:1;fill-rule:evenodd;stroke:none"
     d="m 132.57626,139.12492 65.10155,0.28219 -16.636,-16.78698 -33.12062,-0.15098 -15.34493,16.65577" />
  <path
     inkscape:connector-curvature="0"
     id="path116"
     style="fill:none;stroke:#72aab0;stroke-width:0.29802501;stroke-linecap:butt;stroke-linejoin:miter;stroke-miterlimit:22.92560005;stroke-dasharray:none;stroke-opacity:1"
     d="m 132.57626,139.12492 65.10155,0.28219 -16.636,-16.78698 -33.12062,-0.15098 -15.34493,16.65577 z" />
  <path
     inkscape:connector-curvature="0"
     id="path136"
     style="fill:none;stroke:#a7a5a6;stroke-width:0.83447087;stroke-linecap:round;stroke-linejoin:round;stroke-miterlimit:22.92560005;stroke-dasharray:none;stroke-opacity:1"
     d="m 346.05865,87.148231 0,-2.52581 -6.349,0 0,8.22633 -7.95297,0 0,-15.01943 0.81881,0 0,-1.16029 -0.81881,0 0,-1.80919 -23.48462,0 0,-21.23133 2.4581,-1.36551 0,-1.02404 -0.95632,0 c -3.95946,-2.73061 -5.05162,-9.14774 -5.05162,-9.14774 -0.0681,0 0.68255,-0.37555 0.68255,-0.37555 l 0,-0.7511 c -4.94942,-1.91096 -19.25139,-10.75213 -19.25139,-10.75213 l -5.32497,0 0,-1.46771 -5.5979,0 0,3.41358 -8.22633,4.84723 -4.64242,0 0,3.24242 -25.0541,0.0341 0,-2.4232 -1.43365,0 0,-0.61442 -1.12664,0.0337 0,0.58077 -1.39958,0 0,2.4232 -25.87333,0 0,-2.321 -1.43365,0 0,-0.68297 -1.12664,0 0,0.68297 -1.39916,0 0,2.321 -9.69446,0 0,-1.3651 -0.34148,-0.7511 -0.71661,0 -0.40962,0.78516 0,1.33104 -2.62842,0 -0.95548,-2.49175 0.58036,-0.54587 0,-0.54629 -19.52475,-6.96342 0,-1.33103 0.44368,0 0,-1.22926 -0.68255,0 0,-8.32852 1.29697,-1.36509 0,-0.64891 -2.21881,-0.92142 0,-0.92184 0.71703,0 0,-0.81922 -0.58035,0 c -0.37555,-2.628 -2.59436,-2.90136 -2.59436,-2.90136 l 0,-2.2183897 c 0.44368,-0.13667 0.44368,-1.02445 0,-1.12664 l -0.0681,-1.53584 c 0,-0.23929 0.20481,-0.61484 0.40961,-0.61484 0.0681,0.41003 0.37555,0.68297 0.37555,0.68297 0.20481,0.307 0.47775,0 0.37555,-0.17074 -1.22884,-2.28694 0.40919,-4.53981 -0.10261,-5.73458999 -0.10261,-0.27293 -0.71703,-0.0681 -0.68255,0.13668 0,0 -0.37555,1.70657999 -1.02403,2.08212999 -0.40962,-0.30742 -0.58036,-0.98997 -0.4441,-1.53584 -0.0336,-0.23886999 -0.27294,-0.13667 -0.307,0.0681 -0.307,2.014 1.43365,3.14023 1.22884,4.36907 -0.27294,0.23887 -0.47774,0.75109 -0.47774,0.75109 l 0,1.50178 c -0.4441,0.10219 -0.47774,0.98997 0,1.16029 l 0,2.1847397 c 0,0 -2.32142,0.30742 -2.66249,2.90136 l -0.58035,0 0,0.88777 0.71661,0 0,0.85329 -2.15026,0.95549 0,0.58035 1.36552,1.36552 0,8.36258 -0.7511,0 0,1.22926 0.44368,0 0,1.33103 -19.55881,7.27084 0,0.51181 0.54629,0.54629 -1.09258,2.59393 -2.55987,0 0,-1.36509 -0.47774,-0.78516 -0.58036,0 -0.47774,0.78516 0,1.36509 -9.18223,0 0,-2.49174 -1.33145,0 0,-0.64848 -1.19436,0 0,0.68255 -1.2629,0 0,2.42361 -25.976364,0 0,-2.18432 -1.53584,0 0,-0.64891 -0.98997,0 0,0.61442 -1.53584,0 0,2.25287 -24.81565,0 0.0341,-2.86729 -5.73458,0 -8.39665,-4.77868 0,-3.24283 -5.359034,0 0,1.63845 -5.222776,0 c 0,0 -15.428406,9.48922 -19.900001,10.71806 l 0,0.54629 0.785078,0.54588 c 0,0 -0.921755,6.82716 -5.427372,9.38703 l -1.228797,0 0,1.12665 2.423571,1.46771 0.03402,20.85577 -20.6168526,0 0,2.90136 -0.81924697,0 0,1.0581 0.78507697,0 0,12.83468 0.2132841,76.903999 59.2067695,-0.0693 24.14446,-26.84466 175.107034,-1.33692 22.78315,28.21228 63.46983,0.34582 -0.0681,-82.911729 0,0 z m -25.39601,-5.97345 c 2.28736,0 4.54023,1.05809 4.54023,3.17429 l 0,8.49968 -9.04555,0 0,-8.49968 c -0.0345,-2.1162 2.21839,-3.17429 4.50532,-3.17429 z m -308.981348,1.33103 c 2.1847,0 4.369233,0.71703 4.369233,2.18474 l 0,8.1582 -8.7725306,0 c 0,-2.66249 0,-8.1582 -0.03398,-8.1582 0.03398,-1.46771 2.252703,-2.18474 4.4372776,-2.18474 z"
     sodipodi:nodetypes="cccccccccccccccccccccccccccccccccccccccccccccccccccccccccccccccccccccccccccccccccccccccccccccccccccccccccccccccccccccccccccccccccccccccccccccccccccccccccsccccccsccccc" />
  <path
     inkscape:connector-curvature="0"
     id="path138"
     style="fill:none;stroke:#a7a5a6;stroke-width:0.59605002;stroke-linecap:butt;stroke-linejoin:miter;stroke-miterlimit:22.92560005;stroke-dasharray:1.1921, 2.98025;stroke-dashoffset:0;stroke-opacity:1"
     d="m 141.68069,40.488511 -16.09981,11.27319 -4.85985,13.29939 -38.932164,-0.524 -20.77503,7.9332 -4.03767,-9.04387 -23.464857,-11.01665 -6.87069,-8.59473 m -3.923285,27.76453 38.341922,1.27594 -0.67203,70.232229 m -59.1117026,0.45335 59.1121226,-0.40919 22.7352,-21.70445 177.989044,0.6918 21.45548,21.36969 63.31129,-0.0593 m -63.37479,26.17987 -0.26242,-95.175259 4.45738,-8.8315 20.66233,-10.30677 m 0.30195,20.21949 -25.01289,-0.94791 -20.39191,-8.20782 -49.19898,-0.71115 -5.2232,-14.82387 -17.94559,-10.41106" />
  <path
     inkscape:connector-curvature="0"
     id="path140"
     style="fill:none;stroke:#a7a5a6;stroke-width:0.59605002;stroke-linecap:butt;stroke-linejoin:miter;stroke-miterlimit:22.92560005;stroke-dasharray:1.1921, 0.59605;stroke-dashoffset:0;stroke-opacity:1"
     d="m 120.64744,65.153611 92.34628,0.45251" />
  <g
     transform="matrix(0.03520859,0,0,-0.04890081,-0.36461057,190.63523)"
     id="g142">
    <path
       inkscape:connector-curvature="0"
       id="path144"
       style="fill:none;stroke:#a7a5a6;stroke-width:17.06450081;stroke-linecap:round;stroke-linejoin:round;stroke-miterlimit:22.92560005;stroke-dasharray:none;stroke-opacity:1"
       d="m 8199.66,1778.45 -304.63,0.13 473.91,-286.72 -473.73,-308.87 -597.04,421.91 -1847.85,4.63" />
  </g>
  <path
     inkscape:connector-curvature="0"
     id="path146"
     style="fill:none;stroke:#a7a5a6;stroke-width:0.83447087;stroke-linecap:butt;stroke-linejoin:miter;stroke-miterlimit:22.92560005;stroke-dasharray:none;stroke-opacity:1"
     d="m 285.68783,105.80034 3.29373,-2.13259 -3.29162,-2.13807" />
  <path
     inkscape:connector-curvature="0"
     id="path148"
     style="fill:none;stroke:#a7a5a6;stroke-width:0.83447087;stroke-linecap:round;stroke-linejoin:round;stroke-miterlimit:22.92560005;stroke-dasharray:none;stroke-opacity:1"
     d="m 218.41289,108.37577 4.18823,3.15999" />
  <path
     inkscape:connector-curvature="0"
     id="path150"
     style="fill:none;stroke:#a7a5a6;stroke-width:0.83447087;stroke-linecap:round;stroke-linejoin:round;stroke-miterlimit:22.92560005;stroke-dasharray:none;stroke-opacity:1"
     d="m 219.95294,106.95516 4.18781,3.16042" />
  <path
     inkscape:connector-curvature="0"
     id="path152"
     style="fill:none;stroke:#a7a5a6;stroke-width:0.83447087;stroke-linecap:round;stroke-linejoin:round;stroke-miterlimit:22.92560005;stroke-dasharray:none;stroke-opacity:1"
     d="m 221.32855,105.66871 4.18823,3.16041" />
  <path
     inkscape:connector-curvature="0"
     id="path154"
     style="fill:none;stroke:#a7a5a6;stroke-width:0.83447087;stroke-linecap:round;stroke-linejoin:round;stroke-miterlimit:22.92560005;stroke-dasharray:none;stroke-opacity:1"
     d="m 222.64023,104.51473 4.18823,3.15999" />
  <path
     inkscape:connector-curvature="0"
     id="path156"
     style="fill:none;stroke:#a7a5a6;stroke-width:0.83447087;stroke-linecap:round;stroke-linejoin:round;stroke-miterlimit:22.92560005;stroke-dasharray:none;stroke-opacity:1"
     d="m 224.02383,103.22154 4.18781,3.16" />
  <path
     inkscape:connector-curvature="0"
     id="path158"
     style="fill:none;stroke:#a7a5a6;stroke-width:0.83447087;stroke-linecap:round;stroke-linejoin:round;stroke-miterlimit:22.92560005;stroke-dasharray:none;stroke-opacity:1"
     d="m 225.39272,101.93425 4.18781,3.15999" />
  <g
     transform="matrix(0.03520859,0,0,-0.04890081,-0.36461057,190.63523)"
     id="g160">
    <path
       inkscape:connector-curvature="0"
       id="path162"
       style="fill:none;stroke:#a7a5a6;stroke-width:17.06450081;stroke-linecap:round;stroke-linejoin:round;stroke-miterlimit:22.92560005;stroke-dasharray:none;stroke-opacity:1"
       d="m 5935.41,2065.1 -799.58,404.21 94.12,186.29" />
  </g>
  <path
     inkscape:connector-curvature="0"
     id="path164"
     style="fill:none;stroke:#a7a5a6;stroke-width:0.63085872;stroke-linecap:butt;stroke-linejoin:miter;stroke-miterlimit:22.92560005;stroke-dasharray:none;stroke-opacity:1"
     d="m 181.57464,62.101701 2.36726,-1.78733 0.66699,2.89126" />
  <g
     transform="matrix(0.03520859,0,0,-0.04890081,-0.36461057,190.63523)"
     id="g166">
    <path
       inkscape:connector-curvature="0"
       id="path168"
       style="fill:none;stroke:#a7a5a6;stroke-width:17.06450081;stroke-linecap:round;stroke-linejoin:round;stroke-miterlimit:22.92560005;stroke-dasharray:none;stroke-opacity:1"
       d="m 5584.77,1515.17 593.35,-2.03 689.45,454.25 -403.08,170.36 1001.68,6.58 171.04,-32.89" />
  </g>
  <path
     inkscape:connector-curvature="0"
     id="path170"
     style="fill:none;stroke:#a7a5a6;stroke-width:0.81968856;stroke-linecap:butt;stroke-linejoin:miter;stroke-miterlimit:22.92560005;stroke-dasharray:none;stroke-opacity:1"
     d="m 266.56177,84.688031 2.58384,2.86014 -3.66633,1.19267" />
  <path
     inkscape:connector-curvature="0"
     id="path172"
     style="fill:none;stroke:#a7a5a6;stroke-width:0.83447087;stroke-linecap:round;stroke-linejoin:round;stroke-miterlimit:22.92560005;stroke-dasharray:none;stroke-opacity:1"
     d="m 189.68784,109.89016 22.77431,0.0841 17.95232,-17.043099 -5.00031,-3.15831 -19.72913,0.0875" />
  <g
     transform="matrix(0.03520859,0,0,-0.04890081,-0.36461057,190.63523)"
     id="g174">
    <path
       inkscape:connector-curvature="0"
       id="path176"
       style="fill:none;stroke:#a7a5a6;stroke-width:17.06450081;stroke-linecap:round;stroke-linejoin:round;stroke-miterlimit:22.92560005;stroke-dasharray:none;stroke-opacity:1"
       d="m 5515.88,1564.52 516.29,1.21 650.78,426.91 -279.76,125.42 -150.16,0.13 -33.42,44.62" />
  </g>
  <path
     inkscape:connector-curvature="0"
     id="path178"
     style="fill:none;stroke:#a7a5a6;stroke-width:0.65816063;stroke-linecap:butt;stroke-linejoin:miter;stroke-miterlimit:22.92560005;stroke-dasharray:none;stroke-opacity:1"
     d="m 218.12734,87.507381 0.24981,-3.08514 2.71547,1.48664" />
  <path
     inkscape:connector-curvature="0"
     id="path180"
     style="fill:none;stroke:#a7a5a6;stroke-width:0.83447087;stroke-linecap:round;stroke-linejoin:round;stroke-miterlimit:22.92560005;stroke-dasharray:none;stroke-opacity:1"
     d="m 138.62289,111.50801 -19.29597,-0.0101 -20.114354,-18.406509 5.987334,-3.90982 16.67343,0.0875 6.31284,0.0551" />
  <g
     transform="matrix(0.03463337,0,0,-0.04947612,-0.36461057,190.63523)"
     id="g182">
    <path
       inkscape:connector-curvature="0"
       id="path184"
       style="fill:none;stroke:#a7a5a6;stroke-width:16.86610031;stroke-linecap:round;stroke-linejoin:round;stroke-miterlimit:22.92560005;stroke-dasharray:none;stroke-opacity:1"
       d="m 3603.15,2052.28 738.44,394.75 -3.69,182.7" />
  </g>
  <path
     inkscape:connector-curvature="0"
     id="path186"
     style="fill:none;stroke:#a7a5a6;stroke-width:0.58186495;stroke-linecap:butt;stroke-linejoin:miter;stroke-miterlimit:22.92560005;stroke-dasharray:none;stroke-opacity:1"
     d="m 148.40944,62.392301 1.45594,-2.31722 1.52154,2.27516" />
  <path
     inkscape:connector-curvature="0"
     id="path188"
     style="fill:none;stroke:#a7a5a6;stroke-width:0.83447087;stroke-linecap:round;stroke-linejoin:round;stroke-miterlimit:22.92560005;stroke-dasharray:none;stroke-opacity:1"
     d="m 42.31883,120.60528 4.147857,-3.12971" />
  <path
     inkscape:connector-curvature="0"
     id="path190"
     style="fill:none;stroke:#a7a5a6;stroke-width:0.83447087;stroke-linecap:round;stroke-linejoin:round;stroke-miterlimit:22.92560005;stroke-dasharray:none;stroke-opacity:1"
     d="m 291.1457,120.18768 -4.14786,-3.12971" />
  <path
     inkscape:connector-curvature="0"
     id="path192"
     style="fill:none;stroke:#a7a5a6;stroke-width:0.83447087;stroke-linecap:round;stroke-linejoin:round;stroke-miterlimit:22.92560005;stroke-dasharray:none;stroke-opacity:1"
     d="m 289.62079,121.59441 -4.14786,-3.12971" />
  <path
     inkscape:connector-curvature="0"
     id="path194"
     style="fill:none;stroke:#a7a5a6;stroke-width:0.83447087;stroke-linecap:round;stroke-linejoin:round;stroke-miterlimit:22.92560005;stroke-dasharray:none;stroke-opacity:1"
     d="m 288.25822,122.86867 -4.14786,-3.12971" />
  <path
     inkscape:connector-curvature="0"
     id="path196"
     style="fill:none;stroke:#a7a5a6;stroke-width:0.83447087;stroke-linecap:round;stroke-linejoin:round;stroke-miterlimit:22.92560005;stroke-dasharray:none;stroke-opacity:1"
     d="M 286.95915,124.01172 282.81129,120.882" />
  <path
     inkscape:connector-curvature="0"
     id="path198"
     style="fill:none;stroke:#a7a5a6;stroke-width:0.83447087;stroke-linecap:round;stroke-linejoin:round;stroke-miterlimit:22.92560005;stroke-dasharray:none;stroke-opacity:1"
     d="m 285.58901,125.29228 -4.14786,-3.12971" />
  <path
     inkscape:connector-curvature="0"
     id="path200"
     style="fill:none;stroke:#a7a5a6;stroke-width:0.83447087;stroke-linecap:round;stroke-linejoin:round;stroke-miterlimit:22.92560005;stroke-dasharray:none;stroke-opacity:1"
     d="m 284.23316,126.56738 -4.14744,-3.12971" />
  <path
     inkscape:connector-curvature="0"
     id="path202"
     style="fill:none;stroke:#a7a5a6;stroke-width:0.83447087;stroke-linecap:round;stroke-linejoin:round;stroke-miterlimit:22.92560005;stroke-dasharray:none;stroke-opacity:1"
     d="m 283.00306,127.67174 -4.14786,-3.12971" />
  <path
     inkscape:connector-curvature="0"
     id="path204"
     style="fill:none;stroke:#a7a5a6;stroke-width:0.83447087;stroke-linecap:round;stroke-linejoin:round;stroke-miterlimit:22.92560005;stroke-dasharray:none;stroke-opacity:1"
     d="m 280.51721,130.11428 -4.14744,-3.12971" />
  <path
     inkscape:connector-curvature="0"
     id="path206"
     style="fill:none;stroke:#a7a5a6;stroke-width:0.83447087;stroke-linecap:round;stroke-linejoin:round;stroke-miterlimit:22.92560005;stroke-dasharray:none;stroke-opacity:1"
     d="m 281.76076,128.79544 -4.14785,-3.12971" />
  <path
     inkscape:connector-curvature="0"
     id="path208"
     style="fill:none;stroke:#a7a5a6;stroke-width:0.83447087;stroke-linecap:round;stroke-linejoin:round;stroke-miterlimit:22.92560005;stroke-dasharray:none;stroke-opacity:1"
     d="M 279.16094,131.26321 275.0135,128.1335" />
  <path
     inkscape:connector-curvature="0"
     id="path210"
     style="fill:none;stroke:#a7a5a6;stroke-width:0.83447087;stroke-linecap:round;stroke-linejoin:round;stroke-miterlimit:22.92560005;stroke-dasharray:none;stroke-opacity:1"
     d="m 46.677802,130.16138 22.886604,-17.26515 67.962954,0.33602" />
  <path
     inkscape:connector-curvature="0"
     id="path212"
     style="fill:none;stroke:#a7a5a6;stroke-width:0.83304095;stroke-linecap:butt;stroke-linejoin:miter;stroke-miterlimit:22.92560005;stroke-dasharray:none;stroke-opacity:1"
     d="m 47.502916,126.86976 -1.341125,3.68063 3.908566,-0.27715" />
  <path
     inkscape:connector-curvature="0"
     id="path214"
     style="fill:none;stroke:#a7a5a6;stroke-width:0.83447087;stroke-linecap:round;stroke-linejoin:round;stroke-miterlimit:22.92560005;stroke-dasharray:none;stroke-opacity:1"
     d="m 44.845898,99.233921 11.802238,-7.41383 -6.365403,-0.13878 -22.871671,15.115309 17.810806,16.57502 20.465088,-13.81119 74.822924,-0.0193" />
  <path
     inkscape:connector-curvature="0"
     id="path216"
     style="fill:none;stroke:#a7a5a6;stroke-width:0.83196861;stroke-linecap:butt;stroke-linejoin:miter;stroke-miterlimit:22.92560005;stroke-dasharray:none;stroke-opacity:1"
     d="m 45.947312,96.028931 -1.648125,3.54815 3.912771,0.0576" />
  <path
     inkscape:connector-curvature="0"
     id="path218"
     style="fill:none;stroke:#a7a5a6;stroke-width:0.83447087;stroke-linecap:round;stroke-linejoin:round;stroke-miterlimit:22.92560005;stroke-dasharray:none;stroke-opacity:1"
     d="m 31.690634,110.77289 4.147647,-3.12971" />
  <path
     inkscape:connector-curvature="0"
     id="path220"
     style="fill:none;stroke:#a7a5a6;stroke-width:0.83447087;stroke-linecap:round;stroke-linejoin:round;stroke-miterlimit:22.92560005;stroke-dasharray:none;stroke-opacity:1"
     d="m 33.215749,112.18004 4.147815,-3.12971" />
  <path
     inkscape:connector-curvature="0"
     id="path222"
     style="fill:none;stroke:#a7a5a6;stroke-width:0.83447087;stroke-linecap:round;stroke-linejoin:round;stroke-miterlimit:22.92560005;stroke-dasharray:none;stroke-opacity:1"
     d="m 34.578112,113.45346 4.147815,-3.12929" />
  <path
     inkscape:connector-curvature="0"
     id="path224"
     style="fill:none;stroke:#a7a5a6;stroke-width:0.83447087;stroke-linecap:round;stroke-linejoin:round;stroke-miterlimit:22.92560005;stroke-dasharray:none;stroke-opacity:1"
     d="m 35.87735,114.59693 4.147647,-3.12972" />
  <path
     inkscape:connector-curvature="0"
     id="path226"
     style="fill:none;stroke:#a7a5a6;stroke-width:0.83447087;stroke-linecap:round;stroke-linejoin:round;stroke-miterlimit:22.92560005;stroke-dasharray:none;stroke-opacity:1"
     d="m 37.247409,115.87749 4.147647,-3.12971" />
  <path
     inkscape:connector-curvature="0"
     id="path228"
     style="fill:none;stroke:#a7a5a6;stroke-width:0.83447087;stroke-linecap:round;stroke-linejoin:round;stroke-miterlimit:22.92560005;stroke-dasharray:none;stroke-opacity:1"
     d="m 38.603043,117.15259 4.147689,-3.12971" />
  <path
     inkscape:connector-curvature="0"
     id="path230"
     style="fill:none;stroke:#a7a5a6;stroke-width:0.83447087;stroke-linecap:round;stroke-linejoin:round;stroke-miterlimit:22.92560005;stroke-dasharray:none;stroke-opacity:1"
     d="m 39.83348,118.25695 4.147773,-3.12971" />
  <path
     inkscape:connector-curvature="0"
     id="path232"
     style="fill:none;stroke:#a7a5a6;stroke-width:0.83447087;stroke-linecap:round;stroke-linejoin:round;stroke-miterlimit:22.92560005;stroke-dasharray:none;stroke-opacity:1"
     d="m 41.075903,119.38065 4.147647,-3.12971" />
  <path
     inkscape:connector-curvature="0"
     id="path234"
     style="fill:none;stroke:#a7a5a6;stroke-width:0.83447087;stroke-linecap:round;stroke-linejoin:round;stroke-miterlimit:22.92560005;stroke-dasharray:none;stroke-opacity:1"
     d="m 43.675095,121.84842 4.147857,-3.12971" />
  <path
     inkscape:connector-curvature="0"
     id="path236"
     style="fill:none;stroke:#a7a5a6;stroke-width:0.83447087;stroke-linecap:round;stroke-linejoin:round;stroke-miterlimit:22.92560005;stroke-dasharray:none;stroke-opacity:1"
     d="m 108.4482,108.91071 4.14744,-3.12972" />
  <path
     inkscape:connector-curvature="0"
     id="path238"
     style="fill:none;stroke:#a7a5a6;stroke-width:0.83447087;stroke-linecap:round;stroke-linejoin:round;stroke-miterlimit:22.92560005;stroke-dasharray:none;stroke-opacity:1"
     d="m 98.042596,98.918931 3.924554,-2.96991" />
  <path
     inkscape:connector-curvature="0"
     id="path240"
     style="fill:none;stroke:#a7a5a6;stroke-width:0.83447087;stroke-linecap:round;stroke-linejoin:round;stroke-miterlimit:22.92560005;stroke-dasharray:none;stroke-opacity:1"
     d="m 99.567926,100.32566 3.924554,-2.969909" />
  <path
     inkscape:connector-curvature="0"
     id="path242"
     style="fill:none;stroke:#a7a5a6;stroke-width:0.83447087;stroke-linecap:round;stroke-linejoin:round;stroke-miterlimit:22.92560005;stroke-dasharray:none;stroke-opacity:1"
     d="m 101.05751,101.53599 3.79712,-2.906399" />
  <path
     inkscape:connector-curvature="0"
     id="path244"
     style="fill:none;stroke:#a7a5a6;stroke-width:0.83447087;stroke-linecap:round;stroke-linejoin:round;stroke-miterlimit:22.92560005;stroke-dasharray:none;stroke-opacity:1"
     d="m 102.22915,102.711 3.92497,-2.938359" />
  <path
     inkscape:connector-curvature="0"
     id="path246"
     style="fill:none;stroke:#a7a5a6;stroke-width:0.83447087;stroke-linecap:round;stroke-linejoin:round;stroke-miterlimit:22.92560005;stroke-dasharray:none;stroke-opacity:1"
     d="m 103.59929,104.05591 3.92497,-3.00229" />
  <path
     inkscape:connector-curvature="0"
     id="path248"
     style="fill:none;stroke:#a7a5a6;stroke-width:0.83447087;stroke-linecap:round;stroke-linejoin:round;stroke-miterlimit:22.92560005;stroke-dasharray:none;stroke-opacity:1"
     d="m 104.89122,105.36255 3.98847,-3.03383" />
  <path
     inkscape:connector-curvature="0"
     id="path250"
     style="fill:none;stroke:#a7a5a6;stroke-width:0.83447087;stroke-linecap:round;stroke-linejoin:round;stroke-miterlimit:22.92560005;stroke-dasharray:none;stroke-opacity:1"
     d="m 106.18566,106.37102 3.92455,-2.93794" />
  <path
     inkscape:connector-curvature="0"
     id="path252"
     style="fill:none;stroke:#a7a5a6;stroke-width:0.83447087;stroke-linecap:round;stroke-linejoin:round;stroke-miterlimit:22.92560005;stroke-dasharray:none;stroke-opacity:1"
     d="m 107.36403,107.59103 3.98847,-3.03425" />
  <path
     inkscape:connector-curvature="0"
     id="path254"
     style="fill:none;stroke:#a7a5a6;stroke-width:0.83447087;stroke-linecap:round;stroke-linejoin:round;stroke-miterlimit:22.92560005;stroke-dasharray:none;stroke-opacity:1"
     d="m 110.4151,109.54321 3.53681,-2.51866" />
  <path
     inkscape:connector-curvature="0"
     id="path256"
     style="fill:none;stroke:#a7a5a6;stroke-width:0.83447087;stroke-linecap:round;stroke-linejoin:round;stroke-miterlimit:22.92560005;stroke-dasharray:none;stroke-opacity:1"
     d="m 229.14442,98.447911 4.18823,3.159989" />
  <path
     inkscape:connector-curvature="0"
     id="path258"
     style="fill:none;stroke:#a7a5a6;stroke-width:0.83447087;stroke-linecap:round;stroke-linejoin:round;stroke-miterlimit:22.92560005;stroke-dasharray:none;stroke-opacity:1"
     d="m 226.63501,100.81896 4.18781,3.15999" />
  <path
     inkscape:connector-curvature="0"
     id="path260"
     style="fill:none;stroke:#a7a5a6;stroke-width:0.83447087;stroke-linecap:round;stroke-linejoin:round;stroke-miterlimit:22.92560005;stroke-dasharray:none;stroke-opacity:1"
     d="m 227.88908,99.684321 4.18823,3.159989" />
  <path
     inkscape:connector-curvature="0"
     id="path262"
     style="fill:none;stroke:#a7a5a6;stroke-width:0.83447087;stroke-linecap:round;stroke-linejoin:round;stroke-miterlimit:22.92560005;stroke-dasharray:none;stroke-opacity:1"
     d="m 230.51414,97.192581 4.18781,3.159989" />
  <g
     transform="matrix(0.02178876,0.00624782,0.01249559,-0.0435771,-0.36461057,190.63523)"
     id="g264">
    <path
       inkscape:connector-curvature="0"
       id="path266"
       style="fill:none;stroke:#a7a5a6;stroke-width:18.40740013;stroke-linecap:round;stroke-linejoin:round;stroke-miterlimit:38.20149994;stroke-dasharray:none;stroke-opacity:1"
       d="m 4842.3,2426.99 -850.6,-124.97 -1324.67,337.09 332.05,165.4 459.55,63.88 74.11,55.45" />
  </g>
  <path
     inkscape:connector-curvature="0"
     id="path268"
     style="fill:none;stroke:#a7a5a6;stroke-width:0.57686043;stroke-linecap:butt;stroke-linejoin:miter;stroke-miterlimit:38.20149994;stroke-dasharray:none;stroke-opacity:1"
     d="m 110.79528,85.349131 2.69066,-0.34401 -0.78306,2.59772" />
  <path
     inkscape:connector-curvature="0"
     id="path270"
     style="fill:#91dbe1;fill-opacity:1;fill-rule:evenodd;stroke:none"
     d="m 231.53775,135.94306 9.52834,0.0156 0.0601,-7.06855 -9.52161,0.0892 -0.0669,6.96384" />
  <path
     inkscape:connector-curvature="0"
     id="path272"
     style="fill:none;stroke:#a7a5a6;stroke-width:0.59605002;stroke-linecap:butt;stroke-linejoin:miter;stroke-miterlimit:22.92560005;stroke-dasharray:none;stroke-opacity:1"
     d="m 231.53775,135.94306 9.52834,0.0156 0.0601,-7.06855 -9.52161,0.0892 -0.0669,6.96384 z" />
  <g
     id="g274"
     transform="matrix(0.42054723,0,0,-0.42054723,-0.36461057,293.12535)" />
  <path
     inkscape:connector-curvature="0"
     id="path306"
     style="fill:#575757;fill-opacity:1;stroke:none;stroke-width:0.21600001;stroke-linecap:butt;stroke-linejoin:miter;stroke-miterlimit:22.92560005;stroke-dasharray:none;stroke-opacity:1"
     d="m 25.987923,89.601261 c 0,0.48159 -0.0767,0.90032 -0.239664,1.29138 -0.1651,0.37344 -0.404765,0.70289 -0.721133,0.97198 -0.314354,0.2716 -0.703401,0.48159 -1.153307,0.63123 -0.465623,0.14962 -0.990219,0.22382 -1.573663,0.22382 -0.524596,0 -1.019769,-0.0592 -1.499098,-0.16473 -0.479455,-0.10439 -0.929361,-0.26908 -1.334124,-0.47907 l 0,-2.11247 c 0.23979,0.11947 0.463738,0.22382 0.705413,0.32817 0.239665,0.10567 0.47933,0.19617 0.732826,0.2842 0.239665,0.0754 0.495047,0.15214 0.734837,0.19741 0.255383,0.0427 0.495047,0.0742 0.734712,0.0742 0.255508,0 0.463736,-0.0314 0.644428,-0.0906 0.180817,-0.0603 0.330073,-0.13581 0.434314,-0.24016 0.106006,-0.0893 0.194397,-0.20999 0.239665,-0.34581 0.04514,-0.14837 0.07468,-0.29802 0.07468,-0.46272 0,-0.1949 -0.04325,-0.37597 -0.119963,-0.52435 -0.0884,-0.16598 -0.208228,-0.30178 -0.359496,-0.43507 -0.164974,-0.1358 -0.343778,-0.27035 -0.554019,-0.39105 -0.223948,-0.1333 -0.463738,-0.2691 -0.734839,-0.40489 -0.223945,-0.11947 -0.479329,-0.25276 -0.748542,-0.43382 -0.284932,-0.16471 -0.540315,-0.35962 -0.795697,-0.61488 -0.239665,-0.24017 -0.448019,-0.53817 -0.612994,-0.88396 -0.165099,-0.35963 -0.255381,-0.77961 -0.255381,-1.25993 0,-0.47909 0.09029,-0.9129 0.239664,-1.28887 0.164973,-0.37471 0.389046,-0.68906 0.673852,-0.95816 0.300649,-0.25525 0.660146,-0.45015 1.064911,-0.59978 0.420481,-0.13581 0.884093,-0.19365 1.408689,-0.19365 0.255383,0 0.51089,0.0138 0.750555,0.0427 0.253371,0.0313 0.493162,0.0906 0.732826,0.15088 0.239664,0.059 0.495047,0.13455 0.734837,0.24018 0.239665,0.0906 0.495047,0.19489 0.750429,0.31434 l -0.734711,1.76794 c -0.210241,-0.10439 -0.420483,-0.1949 -0.615004,-0.26909 -0.178807,-0.0906 -0.375215,-0.14964 -0.554021,-0.19489 -0.180818,-0.0603 -0.359623,-0.10567 -0.524597,-0.13455 -0.180816,-0.0163 -0.345791,-0.0302 -0.524596,-0.0302 -0.390933,0 -0.675864,0.1044 -0.884094,0.29926 -0.196535,0.20999 -0.300648,0.48034 -0.300648,0.80852 0,0.18108 0.02954,0.34579 0.09041,0.48035 0.05897,0.13453 0.164973,0.27034 0.298637,0.39105 0.13555,0.11946 0.30065,0.25525 0.524596,0.37471 0.210242,0.11948 0.465624,0.26909 0.766274,0.43381 0.359496,0.19491 0.703276,0.3898 1.003926,0.59979 0.314354,0.1949 0.583569,0.41997 0.793683,0.67397 0.224073,0.23892 0.404765,0.52436 0.524597,0.82487 0.119837,0.31436 0.180817,0.69033 0.180817,1.1078 z" />
  <path
     inkscape:connector-curvature="0"
     id="path308"
     style="fill:#575757;fill-opacity:1;stroke:none;stroke-width:0.21600001;stroke-linecap:butt;stroke-linejoin:miter;stroke-miterlimit:22.92560005;stroke-dasharray:none;stroke-opacity:1"
     d="m 34.461688,92.570031 -7.178998,0 0,-1.57303 2.518741,-2.71352 c 0.314356,-0.34452 0.599288,-0.66015 0.868377,-0.94557 0.255381,-0.28419 0.479455,-0.5671 0.660146,-0.83871 0.194523,-0.28417 0.330072,-0.55326 0.434187,-0.8387 0.106131,-0.28543 0.151271,-0.58595 0.151271,-0.91414 0,-0.35962 -0.106008,-0.64381 -0.330076,-0.83996 -0.210115,-0.20874 -0.495048,-0.29926 -0.870262,-0.29926 -0.389046,0 -0.748668,0.0906 -1.108165,0.28542 -0.359497,0.19365 -0.734839,0.46273 -1.12577,0.80853 l -1.227998,-1.45358 c 0.224072,-0.20999 0.449906,-0.39106 0.689697,-0.56962 0.239664,-0.1949 0.508878,-0.35963 0.793682,-0.49541 0.284934,-0.13456 0.599288,-0.25527 0.945079,-0.34328 0.343778,-0.0767 0.734837,-0.11947 1.169024,-0.11947 0.50888,0 0.974501,0.0743 1.379142,0.20747 0.404762,0.13581 0.748666,0.34579 1.049193,0.60105 0.28493,0.26909 0.495174,0.58344 0.658262,0.94307 0.151265,0.37597 0.225831,0.79469 0.225831,1.25993 0,0.41999 -0.07456,0.82488 -0.225831,1.19832 -0.133665,0.39106 -0.343904,0.76451 -0.599292,1.12414 -0.253494,0.37471 -0.5383,0.73434 -0.868373,1.11031 -0.345793,0.35963 -0.705414,0.73433 -1.078617,1.10903 l -1.290868,1.28887 0,0.10439 4.361618,0 0,1.90375 z" />
  <path
     inkscape:connector-curvature="0"
     id="path316"
     style="fill:#575757;fill-opacity:1;stroke:none;stroke-width:0.21600001;stroke-linecap:butt;stroke-linejoin:miter;stroke-miterlimit:22.92560005;stroke-dasharray:none;stroke-opacity:1"
     d="m 33.624693,134.14262 c 0,0.48156 -0.0766,0.89897 -0.23964,1.28999 -0.16495,0.37342 -0.40472,0.70408 -0.72093,0.97315 -0.31432,0.27031 -0.70333,0.48154 -1.15319,0.6299 -0.46557,0.14962 -0.99011,0.22505 -1.57362,0.22505 -0.52454,0 -1.01954,-0.059 -1.49894,-0.16596 -0.47928,-0.10439 -0.92914,-0.26906 -1.33387,-0.47903 l 0,-2.11225 c 0.23964,0.12071 0.46357,0.22379 0.70522,0.32816 0.23976,0.1069 0.4794,0.19739 0.73275,0.28539 0.23976,0.0743 0.49512,0.15089 0.73476,0.19614 0.25536,0.0427 0.49512,0.0743 0.73476,0.0743 0.25536,0 0.46356,-0.0314 0.64436,-0.0893 0.18068,-0.0615 0.33004,-0.1358 0.43415,-0.24014 0.10612,-0.0906 0.1945,-0.20997 0.23964,-0.34576 0.0453,-0.14962 0.0747,-0.29923 0.0747,-0.46394 0,-0.19362 -0.0433,-0.37467 -0.11983,-0.52429 -0.0884,-0.16471 -0.20821,-0.30049 -0.35946,-0.43377 -0.16508,-0.13579 -0.34387,-0.27158 -0.55409,-0.39102 -0.22392,-0.13327 -0.46356,-0.26905 -0.73463,-0.40484 -0.22405,-0.11946 -0.47941,-0.25398 -0.74859,-0.43376 -0.28478,-0.16597 -0.54014,-0.35959 -0.79562,-0.61482 -0.23964,-0.24015 -0.44785,-0.53938 -0.61293,-0.88514 -0.16495,-0.35959 -0.25535,-0.77952 -0.25535,-1.25854 0,-0.47904 0.0904,-0.91406 0.23964,-1.28874 0.16508,-0.37592 0.389,-0.69024 0.6739,-0.95931 0.3005,-0.25523 0.66008,-0.44885 1.06468,-0.59847 0.42044,-0.13578 0.88413,-0.19488 1.40867,-0.19488 0.25535,0 0.51071,0.0138 0.75035,0.0427 0.25347,0.0314 0.49311,0.0906 0.73275,0.15213 0.23976,0.059 0.49512,0.13327 0.73476,0.23888 0.23964,0.0906 0.49512,0.19489 0.75048,0.31432 l -0.73476,1.76902 c -0.21022,-0.1044 -0.42044,-0.19489 -0.61482,-0.26907 -0.17879,-0.0906 -0.3753,-0.14961 -0.55409,-0.19488 -0.18067,-0.0615 -0.35946,-0.10564 -0.52454,-0.13579 -0.18067,-0.015 -0.34575,-0.0289 -0.52442,-0.0289 -0.39101,0 -0.67579,0.10313 -0.88412,0.29797 -0.19639,0.20997 -0.3005,0.48156 -0.3005,0.8097 0,0.18105 0.0294,0.34575 0.0903,0.47903 0.059,0.13579 0.16509,0.27157 0.29861,0.39102 0.13566,0.11946 0.30062,0.25522 0.52454,0.37593 0.21022,0.11946 0.46558,0.26906 0.7662,0.43377 0.35946,0.19487 0.70332,0.3885 1.00382,0.59846 0.31432,0.19489 0.58351,0.42119 0.79373,0.67391 0.22392,0.24014 0.40472,0.52555 0.52454,0.82604 0.11982,0.31433 0.18067,0.689 0.18067,1.10768 z" />
  <path
     inkscape:connector-curvature="0"
     id="path318"
     style="fill:#575757;fill-opacity:1;stroke:none;stroke-width:0.21600001;stroke-linecap:butt;stroke-linejoin:miter;stroke-miterlimit:22.92560005;stroke-dasharray:none;stroke-opacity:1"
     d="m 40.300163,137.11109 -2.26313,0 0,-6.1909 c 0,-0.13328 0,-0.28415 0,-0.46268 0.0157,-0.18105 0.0157,-0.35958 0.0157,-0.55698 0.0137,-0.19363 0.0137,-0.3885 0.0294,-0.58339 0,-0.19362 0.0157,-0.37467 0.0157,-0.52429 -0.0314,0.0302 -0.0608,0.0755 -0.12171,0.13579 -0.059,0.0427 -0.13365,0.11946 -0.1945,0.17854 -0.0747,0.0754 -0.14937,0.14961 -0.23964,0.22631 -0.0747,0.0743 -0.14937,0.13327 -0.22405,0.19488 l -1.22976,0.98697 -1.09422,-1.3629 3.44775,-2.74216 1.8584,0 0,10.70081 z" />
  <path
     inkscape:connector-curvature="0"
     id="path326"
     style="fill:#575757;fill-opacity:1;stroke:none;stroke-width:0.21600001;stroke-linecap:butt;stroke-linejoin:miter;stroke-miterlimit:22.92560005;stroke-dasharray:none;stroke-opacity:1"
     d="m 161.33864,57.052841 c 0,0.4622 -0.0737,0.86509 -0.22989,1.24137 -0.15849,0.35934 -0.38958,0.67634 -0.69448,0.93647 -0.30247,0.26013 -0.67634,0.46218 -1.10948,0.60617 -0.44767,0.14398 -0.95221,0.21536 -1.51361,0.21536 -0.50573,0 -0.98122,-0.0568 -1.4434,-0.15849 -0.46099,-0.10047 -0.89414,-0.25893 -1.28372,-0.46098 l 0,-2.03265 c 0.23109,0.11496 0.44645,0.21536 0.67876,0.31578 0.23109,0.10168 0.46218,0.18875 0.70537,0.27466 0.23109,0.0714 0.4767,0.14518 0.70779,0.18875 0.24562,0.0411 0.47551,0.0714 0.70659,0.0714 0.24562,0 0.44647,-0.0303 0.61947,-0.0872 0.17424,-0.0581 0.31821,-0.13068 0.41864,-0.22988 0.10165,-0.0872 0.18632,-0.20326 0.22987,-0.33272 0.0436,-0.14398 0.0727,-0.28796 0.0727,-0.44645 0,-0.18755 -0.0423,-0.36177 -0.11617,-0.50454 -0.0847,-0.15971 -0.19964,-0.28916 -0.34484,-0.41863 -0.15969,-0.12946 -0.3315,-0.26013 -0.53355,-0.37628 -0.21538,-0.12825 -0.44647,-0.25892 -0.70659,-0.38838 -0.21656,-0.11616 -0.46219,-0.2444 -0.7211,-0.41862 -0.27344,-0.15851 -0.51905,-0.34604 -0.76588,-0.59164 -0.22987,-0.22988 -0.43071,-0.51785 -0.58922,-0.85058 -0.1585,-0.34603 -0.2456,-0.75014 -0.2456,-1.21111 0,-0.46219 0.0872,-0.87961 0.22988,-1.24017 0.15969,-0.36175 0.37507,-0.66423 0.64851,-0.92313 0.28917,-0.24563 0.63519,-0.43317 1.0248,-0.57713 0.4053,-0.12947 0.85055,-0.18633 1.35629,-0.18633 0.24562,0 0.49122,0.0133 0.72111,0.0412 0.2444,0.0302 0.47549,0.0872 0.70536,0.14519 0.23109,0.0568 0.47672,0.12945 0.70781,0.23109 0.22987,0.0872 0.47548,0.18753 0.7211,0.30246 l -0.70659,1.70113 c -0.20206,-0.0992 -0.40411,-0.18632 -0.59164,-0.25892 -0.17181,-0.0872 -0.36055,-0.14276 -0.53357,-0.18632 -0.17302,-0.0593 -0.34604,-0.10286 -0.50452,-0.13067 -0.17423,-0.0158 -0.33274,-0.0289 -0.50453,-0.0289 -0.37629,0 -0.64974,0.10046 -0.85058,0.28798 -0.18874,0.20205 -0.28915,0.46338 -0.28915,0.77918 0,0.17301 0.0279,0.3327 0.0872,0.46096 0.057,0.13068 0.15851,0.26012 0.28676,0.37628 0.13066,0.11496 0.28916,0.24561 0.50453,0.36056 0.20326,0.11617 0.44888,0.2589 0.73804,0.41863 0.34603,0.18631 0.67633,0.37386 0.9655,0.5759 0.30249,0.18755 0.5614,0.40411 0.76345,0.64852 0.21659,0.23109 0.3896,0.50453 0.50575,0.7937 0.11495,0.30248 0.17302,0.66422 0.17302,1.06713 z" />
  <path
     inkscape:connector-curvature="0"
     id="path328"
     style="fill:#575757;fill-opacity:1;stroke:none;stroke-width:0.21600001;stroke-linecap:butt;stroke-linejoin:miter;stroke-miterlimit:22.92560005;stroke-dasharray:none;stroke-opacity:1"
     d="m 167.76324,59.908221 -2.17782,0 0,-5.95637 c 0,-0.12825 0,-0.27462 0,-0.44645 0.0145,-0.17301 0.0145,-0.34603 0.0145,-0.53477 0.0134,-0.18754 0.0134,-0.37387 0.0289,-0.5614 0,-0.18755 0.0145,-0.36055 0.0145,-0.50453 -0.0303,0.0279 -0.0582,0.0714 -0.11738,0.13066 -0.0567,0.0412 -0.12826,0.11496 -0.18633,0.17182 -0.0726,0.0712 -0.14398,0.14399 -0.23108,0.21778 -0.0714,0.0712 -0.14399,0.12826 -0.21538,0.18633 l -1.18328,0.95098 -1.05383,-1.31155 3.31877,-2.6388 1.78825,0 0,10.2963 z" />
  <path
     inkscape:connector-curvature="0"
     id="path330"
     style="fill:#575757;fill-opacity:1;stroke:none;stroke-width:0.21600001;stroke-linecap:butt;stroke-linejoin:miter;stroke-miterlimit:22.92560005;stroke-dasharray:none;stroke-opacity:1"
     d="m 177.50784,54.758871 c 0,0.83725 -0.0568,1.57287 -0.18754,2.22138 -0.13068,0.66424 -0.34604,1.21233 -0.61946,1.6733 -0.29039,0.44768 -0.64853,0.79372 -1.0974,1.03931 -0.46097,0.2444 -0.99455,0.35935 -1.62974,0.35935 -0.59165,0 -1.10948,-0.11496 -1.55715,-0.35935 -0.44645,-0.24559 -0.80702,-0.59163 -1.0962,-1.03931 -0.28793,-0.46097 -0.50571,-1.00906 -0.64849,-1.6733 -0.14399,-0.64851 -0.21537,-1.38413 -0.21537,-2.22138 0,-0.83484 0.0557,-1.57047 0.18633,-2.23468 0.12948,-0.64853 0.33152,-1.21115 0.62069,-1.67211 0.28675,-0.44889 0.64851,-0.79491 1.09617,-1.0381 0.44646,-0.24561 0.97882,-0.36177 1.61402,-0.36177 0.59165,0 1.11069,0.11617 1.54262,0.36177 0.44889,0.22988 0.82274,0.57591 1.11191,1.0381 0.30247,0.46096 0.51785,1.00906 0.66424,1.67211 0.14278,0.64849 0.21537,1.39984 0.21537,2.23468 z m -4.88924,0 c 0,1.16877 0.10045,2.06288 0.30248,2.65453 0.20206,0.59163 0.54808,0.88081 1.05262,0.88081 0.49001,0 0.83605,-0.28918 1.05383,-0.88081 0.21536,-0.59165 0.31699,-1.47125 0.31699,-2.65453 0,-1.18087 -0.10165,-2.06168 -0.31699,-2.65211 -0.21778,-0.60737 -0.56382,-0.89413 -1.05383,-0.89413 -0.24562,0 -0.46098,0.0714 -0.6352,0.23109 -0.17182,0.14278 -0.30248,0.35814 -0.41742,0.66304 -0.10045,0.28794 -0.18754,0.66302 -0.23109,1.10947 -0.0423,0.44889 -0.0714,0.95341 -0.0714,1.54264 z" />
  <path
     inkscape:connector-curvature="0"
     id="path338"
     style="fill:#575757;fill-opacity:1;stroke:none;stroke-width:0.21600001;stroke-linecap:butt;stroke-linejoin:miter;stroke-miterlimit:22.92560005;stroke-dasharray:none;stroke-opacity:1"
     d="m 158.00722,88.389631 -0.58553,-2.02783 -2.93565,0 -0.58452,2.02783 -1.82465,0 2.7675,-8.55472 2.20699,0 2.7805,8.55472 -1.82464,0 z m -1.00291,-3.5432 -0.54849,-1.86168 c -0.024,-0.0721 -0.0601,-0.19017 -0.1081,-0.34531 -0.036,-0.15514 -0.0961,-0.3343 -0.14213,-0.52547 -0.049,-0.19117 -0.10809,-0.39436 -0.14413,-0.58453 -0.047,-0.19117 -0.0831,-0.35832 -0.10809,-0.49044 -0.011,0.0851 -0.034,0.18016 -0.0591,0.29927 -0.024,0.11911 -0.047,0.23921 -0.0831,0.37033 -0.036,0.13112 -0.0721,0.26324 -0.1081,0.39236 -0.036,0.13212 -0.0591,0.26323 -0.0951,0.37133 -0.036,0.11811 -0.0601,0.2262 -0.0831,0.30928 -0.024,0.0951 -0.049,0.15614 -0.06,0.20318 l -0.53749,1.86168 2.07687,0 z" />
  <path
     inkscape:connector-curvature="0"
     id="path340"
     style="fill:#575757;fill-opacity:1;stroke:none;stroke-width:0.21600001;stroke-linecap:butt;stroke-linejoin:miter;stroke-miterlimit:22.92560005;stroke-dasharray:none;stroke-opacity:1"
     d="m 165.07359,88.389631 -0.23922,-0.83476 -0.0951,0 c -0.0961,0.16715 -0.2142,0.30928 -0.34631,0.43039 -0.13112,0.11811 -0.27525,0.21419 -0.4404,0.29627 -0.15614,0.0721 -0.32229,0.13212 -0.50245,0.16815 -0.17817,0.036 -0.35833,0.059 -0.5485,0.059 -0.32229,0 -0.60855,-0.047 -0.87179,-0.14212 -0.26223,-0.0851 -0.47642,-0.22721 -0.6676,-0.43039 -0.19017,-0.19118 -0.3343,-0.4414 -0.42938,-0.73967 -0.0961,-0.29827 -0.15514,-0.65659 -0.15514,-1.07397 l 0,-4.24683 1.7776,0 0,3.80543 c 0,0.46642 0.0721,0.82375 0.21519,1.05095 0.14313,0.23722 0.37034,0.35632 0.67962,0.35632 0.2272,0 0.43038,-0.047 0.58552,-0.14213 0.15414,-0.0951 0.27325,-0.2272 0.36834,-0.40636 0.0851,-0.19117 0.15714,-0.41738 0.19117,-0.67861 0.036,-0.26324 0.061,-0.57452 0.061,-0.91983 l 0,-3.06577 1.7766,0 0,6.51388 -1.35922,0 z" />
  <path
     inkscape:connector-curvature="0"
     id="path342"
     style="fill:#575757;fill-opacity:1;stroke:none;stroke-width:0.21600001;stroke-linecap:butt;stroke-linejoin:miter;stroke-miterlimit:22.92560005;stroke-dasharray:none;stroke-opacity:1"
     d="m 168.34354,88.389631 1.77816,0 0,-9.06756 -1.77816,0 0,9.06756 z" />
  <path
     inkscape:connector-curvature="0"
     id="path344"
     style="fill:#575757;fill-opacity:1;stroke:none;stroke-width:0.21600001;stroke-linecap:butt;stroke-linejoin:miter;stroke-miterlimit:22.92560005;stroke-dasharray:none;stroke-opacity:1"
     d="m 175.78825,88.389631 -0.34531,-0.8838 -0.047,0 c -0.13112,0.16815 -0.26324,0.32229 -0.38135,0.45441 -0.13212,0.12011 -0.27525,0.2262 -0.41737,0.31028 -0.15715,0.0711 -0.3223,0.14313 -0.51347,0.17916 -0.19217,0.036 -0.40636,0.059 -0.65659,0.059 -0.26324,0 -0.51346,-0.047 -0.73967,-0.13111 -0.2272,-0.0831 -0.41737,-0.20219 -0.58552,-0.38235 -0.16716,-0.16715 -0.28626,-0.38134 -0.38135,-0.63157 -0.0951,-0.26224 -0.14413,-0.57252 -0.14413,-0.91983 0,-0.69062 0.22721,-1.20408 0.66961,-1.52637 0.44139,-0.33431 1.09799,-0.51247 1.97978,-0.5485 l 1.03894,-0.036 0,-0.48944 c 0,-0.26224 -0.0721,-0.46442 -0.22721,-0.59554 -0.15514,-0.11911 -0.38134,-0.19117 -0.65659,-0.19117 -0.27425,0 -0.5495,0.047 -0.82274,0.11911 -0.26224,0.0831 -0.52548,0.19017 -0.79872,0.3343 l -0.57252,-1.18207 c 0.32029,-0.17816 0.67861,-0.32229 1.08498,-0.42838 0.39436,-0.1081 0.81173,-0.15514 1.24012,-0.15514 0.81173,0 1.43229,0.19117 1.87369,0.57251 0.43039,0.38135 0.64458,0.95386 0.64458,1.72956 l 0,4.34292 -1.24212,0 z m -0.52347,-3.01772 -0.58553,0.023 c -0.23922,0.013 -0.4404,0.036 -0.59554,0.0951 -0.16715,0.0491 -0.29827,0.11911 -0.39435,0.2142 -0.1081,0.0961 -0.17916,0.20418 -0.2152,0.32229 -0.047,0.13212 -0.0711,0.27525 -0.0711,0.43039 0,0.27524 0.0601,0.46642 0.20218,0.57251 0.13112,0.12011 0.29827,0.18017 0.51246,0.18017 0.16815,0 0.31128,-0.036 0.45441,-0.0851 0.14313,-0.0591 0.26224,-0.14213 0.37034,-0.25023 0.0951,-0.1191 0.17816,-0.25022 0.23721,-0.40536 0.0611,-0.16715 0.0851,-0.35732 0.0851,-0.56051 l 0,-0.53648 z" />
  <path
     inkscape:connector-curvature="0"
     id="path352"
     style="fill:#575757;fill-opacity:1;stroke:none;stroke-width:0.21600001;stroke-linecap:butt;stroke-linejoin:miter;stroke-miterlimit:22.92560005;stroke-dasharray:none;stroke-opacity:1"
     d="m 151.76091,112.96208 -1.82635,0 0,-8.75623 5.01606,0 0,1.52076 -3.18971,0 0,2.25646 2.96951,0 0,1.52179 -2.96951,0 0,3.45722 z" />
  <path
     inkscape:connector-curvature="0"
     id="path354"
     style="fill:#575757;fill-opacity:1;stroke:none;stroke-width:0.21600001;stroke-linecap:butt;stroke-linejoin:miter;stroke-miterlimit:22.92560005;stroke-dasharray:none;stroke-opacity:1"
     d="m 158.08577,109.60261 c 0,0.66262 0.0988,1.16372 0.28297,1.50738 0.18314,0.33133 0.4908,0.50418 0.91985,0.50418 0.41673,0 0.72335,-0.17285 0.9065,-0.50418 0.1852,-0.34366 0.28295,-0.84476 0.28295,-1.50738 0,-0.66265 -0.0978,-1.16578 -0.28295,-1.49711 -0.18315,-0.33131 -0.48977,-0.48976 -0.91884,-0.48976 -0.41671,0 -0.72437,0.15845 -0.90751,0.48976 -0.18419,0.33133 -0.28297,0.83446 -0.28297,1.49711 z m 4.25568,0 c 0,0.56385 -0.072,1.05465 -0.20682,1.48371 -0.14818,0.42907 -0.35703,0.79743 -0.61427,1.0917 -0.27061,0.29428 -0.58855,0.51446 -0.96823,0.67396 -0.38071,0.16052 -0.80977,0.23253 -1.28926,0.23253 -0.44038,0 -0.84577,-0.072 -1.22546,-0.23253 -0.36732,-0.1595 -0.68733,-0.37968 -0.95794,-0.67396 -0.26854,-0.29427 -0.47742,-0.66263 -0.63689,-1.0917 -0.14715,-0.42906 -0.22123,-0.91986 -0.22123,-1.48371 0,-0.55356 0.0741,-1.04335 0.20887,-1.48372 0.14818,-0.43114 0.34366,-0.78612 0.61427,-1.08039 0.26856,-0.29428 0.58855,-0.51446 0.96719,-0.67395 0.38173,-0.14817 0.81081,-0.22224 1.28824,-0.22224 0.44244,0 0.8468,0.0741 1.21517,0.22224 0.37967,0.15949 0.69761,0.37967 0.96823,0.67395 0.26958,0.29427 0.47844,0.64925 0.62559,1.08039 0.16051,0.44037 0.23254,0.93016 0.23254,1.48372 z" />
  <path
     inkscape:connector-curvature="0"
     id="path356"
     style="fill:#575757;fill-opacity:1;stroke:none;stroke-width:0.21600001;stroke-linecap:butt;stroke-linejoin:miter;stroke-miterlimit:22.92560005;stroke-dasharray:none;stroke-opacity:1"
     d="m 163.00408,106.2668 2.00025,0 1.07831,3.76486 c 0.0618,0.20785 0.11112,0.42908 0.14612,0.66264 0.0258,0.24387 0.0504,0.45274 0.0504,0.63691 l 0.037,0 c 0.0115,-0.0853 0.0236,-0.19652 0.037,-0.30559 0.0115,-0.11111 0.0238,-0.22226 0.0484,-0.3447 0.0258,-0.11111 0.036,-0.22018 0.0731,-0.34366 0.0246,-0.10909 0.0504,-0.20785 0.0741,-0.3056 l 1.05465,-3.76486 2.01156,0 -2.64949,7.55443 c -0.2449,0.71201 -0.57518,1.22649 -1.00527,1.57016 -0.42908,0.34264 -0.96926,0.51446 -1.6072,0.51446 -0.20785,0 -0.39202,-0.013 -0.53916,-0.0236 -0.14715,-0.0258 -0.28296,-0.0493 -0.39306,-0.0741 l 0,-1.44667 c 0.0865,0.0115 0.19551,0.037 0.32002,0.0484 0.1347,0.0236 0.25722,0.0236 0.40435,0.0236 0.18315,0 0.35602,-0.0236 0.49082,-0.072 0.13471,-0.0504 0.24384,-0.12349 0.34263,-0.22224 0.0978,-0.0978 0.18418,-0.20683 0.25722,-0.34264 0.0741,-0.12349 0.13487,-0.26959 0.18418,-0.44142 l 0.11111,-0.33132 -2.52705,-6.75701 z" />
  <path
     inkscape:connector-curvature="0"
     id="path358"
     style="fill:#575757;fill-opacity:1;stroke:none;stroke-width:0.21600001;stroke-linecap:butt;stroke-linejoin:miter;stroke-miterlimit:22.92560005;stroke-dasharray:none;stroke-opacity:1"
     d="m 173.32634,107.44287 c -0.31897,0 -0.58855,0.11111 -0.80874,0.34469 -0.20887,0.2202 -0.33133,0.57518 -0.36836,1.06598 l 2.3295,0 c 0,-0.20785 -0.0248,-0.39304 -0.0741,-0.56489 -0.0484,-0.16976 -0.12247,-0.31794 -0.22018,-0.44037 -0.0977,-0.13472 -0.20887,-0.23254 -0.35498,-0.29428 -0.14817,-0.0741 -0.30766,-0.11111 -0.50315,-0.11111 z m 0.23254,5.64164 c -0.47743,0 -0.91988,-0.072 -1.32424,-0.20682 -0.4054,-0.14815 -0.74804,-0.35703 -1.04231,-0.63896 -0.29428,-0.28296 -0.5155,-0.63794 -0.67497,-1.067 -0.17185,-0.42907 -0.24593,-0.93222 -0.24593,-1.50842 0,-0.58854 0.0741,-1.10405 0.22123,-1.54442 0.14712,-0.43114 0.356,-0.79743 0.61325,-1.0917 0.26957,-0.29633 0.58855,-0.51654 0.96924,-0.66264 0.36837,-0.14817 0.78406,-0.22224 1.2378,-0.22224 0.44245,0 0.84787,0.0617 1.20284,0.19652 0.35498,0.13471 0.66262,0.33133 0.90855,0.58855 0.24385,0.25826 0.44037,0.57724 0.57518,0.95793 0.1347,0.37968 0.19652,0.80874 0.19652,1.29955 l 0,0.88385 -4.08384,0 c 0.0115,0.25722 0.0484,0.4908 0.12247,0.6863 0.0741,0.20786 0.18418,0.37968 0.31794,0.52785 0.13485,0.1461 0.29633,0.24386 0.47949,0.33131 0.19548,0.0732 0.40436,0.1091 0.64925,0.1091 0.20887,0 0.40539,-0.0115 0.57722,-0.036 0.18316,-0.0258 0.36837,-0.0494 0.5402,-0.0978 0.16978,-0.037 0.33132,-0.0978 0.50109,-0.16051 0.17286,-0.072 0.34469,-0.14612 0.51653,-0.23357 l 0,1.41169 c -0.1595,0.0853 -0.32001,0.15949 -0.47949,0.20785 -0.15846,0.0628 -0.33131,0.11111 -0.51446,0.16052 -0.18419,0.037 -0.36837,0.0608 -0.57724,0.0853 -0.20681,0.013 -0.44038,0.0236 -0.68629,0.0236 z" />
  <path
     inkscape:connector-curvature="0"
     id="path360"
     style="fill:#575757;fill-opacity:1;stroke:none;stroke-width:0.21600001;stroke-linecap:butt;stroke-linejoin:miter;stroke-miterlimit:22.92560005;stroke-dasharray:none;stroke-opacity:1"
     d="m 181.28412,106.14231 c 0.0494,0 0.0978,0 0.16051,0 0.0608,0 0.10909,0 0.15948,0.013 0.0608,0 0.1091,0.0115 0.15846,0.0115 0.037,0.013 0.0741,0.0258 0.0988,0.0258 l 0,1.71729 c -0.0246,-0.013 -0.0741,-0.013 -0.13586,-0.0248 -0.0494,-0.013 -0.1111,-0.013 -0.17183,-0.0258 -0.0608,0 -0.12247,-0.0115 -0.18315,-0.0115 -0.0608,0 -0.11111,0 -0.14817,0 -0.23253,0 -0.45273,0.0248 -0.64925,0.0854 -0.19653,0.0608 -0.36836,0.15949 -0.50315,0.29428 -0.14611,0.13484 -0.25723,0.30662 -0.33132,0.52681 -0.0853,0.22225 -0.12248,0.47948 -0.12248,0.79743 l 0,3.40988 -1.82739,0 0,-6.69528 1.38597,0 0.26958,1.00426 0.0853,0 c 0.0977,-0.17185 0.20887,-0.33132 0.31999,-0.46612 0.10909,-0.13472 0.23255,-0.25723 0.36837,-0.35499 0.13486,-0.0987 0.29428,-0.17182 0.4661,-0.23356 0.16978,-0.0494 0.37968,-0.0741 0.59988,-0.0741 z" />
  <text
     xml:space="preserve"
     style="font-style:normal;font-weight:normal;font-size:40px;line-height:125%;font-family:Sans;letter-spacing:0px;word-spacing:0px;fill:#575757;fill-opacity:1;stroke:none;stroke-width:1px;stroke-linecap:butt;stroke-linejoin:miter;stroke-opacity:1"
     x="5.8611035"
     y="156.53616"
     id="text4810"
     sodipodi:linespacing="125%"><tspan
       id="tspan4823"
       sodipodi:role="line"
       x="5.8611035"
       y="156.53616"
       style="font-style:normal;font-variant:normal;font-weight:bold;font-stretch:normal;font-size:15px;font-family:'Droid Sans';-inkscape-font-specification:'Droid Sans Bold';fill:#575757;fill-opacity:1">OSM</tspan></text>
  <text
     xml:space="preserve"
     style="font-style:normal;font-weight:normal;font-size:40px;line-height:125%;font-family:Sans;letter-spacing:0px;word-spacing:0px;fill:#575757;fill-opacity:1;stroke:none;stroke-width:1px;stroke-linecap:butt;stroke-linejoin:miter;stroke-opacity:1"
     x="35.141575"
     y="89.825623"
     id="text4810-4"
     sodipodi:linespacing="125%"><tspan
       id="tspan4823-0"
       sodipodi:role="line"
       x="35.141575"
       y="89.825623"
       style="font-style:normal;font-variant:normal;font-weight:bold;font-stretch:normal;font-size:15px;font-family:'Droid Sans';-inkscape-font-specification:'Droid Sans Bold';fill:#575757;fill-opacity:1">GIS</tspan></text>
  <text
     sodipodi:linespacing="125%"
     id="text4305"
     y="46.58017"
     x="153.27283"
     style="font-style:normal;font-weight:normal;font-size:40px;line-height:125%;font-family:Sans;letter-spacing:0px;word-spacing:0px;fill:#575757;fill-opacity:1;stroke:none;stroke-width:1px;stroke-linecap:butt;stroke-linejoin:miter;stroke-opacity:1"
     xml:space="preserve"><tspan
       style="font-style:normal;font-variant:normal;font-weight:bold;font-stretch:normal;font-size:15px;font-family:'Droid Sans';-inkscape-font-specification:'Droid Sans Bold';fill:#575757;fill-opacity:1"
       y="46.58017"
       x="153.27283"
       sodipodi:role="line"
       id="tspan4307">GIS</tspan></text>
</svg>
